<svg width="200" height="280" viewBox="0 0 200 280" fill="none" xmlns="http://www.w3.org/2000/svg">
<path d="M43.75 0C45.4076 0 46.9973 0.65848 48.1694 1.83058C49.3415 3.00269 50 4.5924 50 6.25V12.5H150V6.25C150 4.5924 150.658 3.00269 151.831 1.83058C153.003 0.65848 154.592 0 156.25 0C157.908 0 159.497 0.65848 160.669 1.83058C161.842 3.00269 162.5 4.5924 162.5 6.25V12.5H175C181.63 12.5 187.989 15.1339 192.678 19.8223C197.366 24.5107 200 30.8696 200 37.5V175C200 181.63 197.366 187.989 192.678 192.678C187.989 197.366 181.63 200 175 200H25C18.3696 200 12.0107 197.366 7.32233 192.678C2.63392 187.989 0 181.63 0 175V37.5C0 30.8696 2.63392 24.5107 7.32233 19.8223C12.0107 15.1339 18.3696 12.5 25 12.5H37.5V6.25C37.5 4.5924 38.1585 3.00269 39.3306 1.83058C40.5027 0.65848 42.0924 0 43.75 0V0ZM12.5 50V175C12.5 178.315 13.817 181.495 16.1612 183.839C18.5054 186.183 21.6848 187.5 25 187.5H175C178.315 187.5 181.495 186.183 183.839 183.839C186.183 181.495 187.5 178.315 187.5 175V50H12.5Z" fill="url(#paint0_linear_1_4218)"/>
<g filter="url(#filter0_f_1_4218)">
<path d="M67.688 154C66.984 154 66.376 153.744 65.864 153.232C65.352 152.72 65.096 152.112 65.096 151.408V112.624L54.344 120.88C53.704 121.328 53.064 121.488 52.424 121.36C51.784 121.168 51.208 120.752 50.696 120.112L42.248 109.168C41.928 108.528 41.832 107.856 41.96 107.152C42.088 106.384 42.472 105.808 43.112 105.424L66.248 87.472C66.568 87.216 66.888 87.056 67.208 86.992C67.528 86.864 67.912 86.8 68.36 86.8H86.504C87.208 86.8 87.816 87.056 88.328 87.568C88.84 88.08 89.096 88.688 89.096 89.392V151.408C89.096 152.112 88.84 152.72 88.328 153.232C87.816 153.744 87.208 154 86.504 154H67.688ZM109.606 154C109.03 154 108.518 153.808 108.07 153.424C107.686 152.976 107.494 152.464 107.494 151.888C107.494 151.568 107.526 151.312 107.59 151.12C107.718 150.928 107.814 150.768 107.878 150.64L120.454 133.84C120.134 133.84 119.878 133.808 119.686 133.744C117.382 133.488 114.886 132.848 112.198 131.824C109.51 130.8 106.95 129.392 104.518 127.6C102.15 125.744 100.198 123.44 98.6615 120.688C97.1895 117.872 96.4535 114.608 96.4535 110.896C96.4535 107.632 97.0935 104.496 98.3735 101.488C99.6535 98.48 101.574 95.824 104.134 93.52C106.694 91.152 109.862 89.296 113.638 87.952C117.414 86.544 121.798 85.84 126.79 85.84C131.782 85.84 136.198 86.416 140.038 87.568C143.942 88.72 147.206 90.384 149.83 92.56C152.518 94.672 154.534 97.2 155.878 100.144C157.286 103.088 157.99 106.352 157.99 109.936C157.99 113.072 157.35 116.048 156.07 118.864C154.79 121.616 153.19 124.304 151.27 126.928C149.35 129.552 147.366 132.304 145.318 135.184L132.646 152.08C132.39 152.4 131.974 152.816 131.398 153.328C130.822 153.776 129.99 154 128.902 154H109.606ZM127.078 117.04C128.358 117.04 129.446 116.816 130.342 116.368C131.238 115.856 131.942 115.152 132.454 114.256C132.966 113.296 133.222 112.144 133.222 110.8C133.222 109.456 132.966 108.336 132.454 107.44C131.942 106.48 131.206 105.776 130.246 105.328C129.35 104.816 128.294 104.56 127.078 104.56C125.862 104.56 124.774 104.816 123.814 105.328C122.918 105.776 122.214 106.48 121.702 107.44C121.19 108.336 120.934 109.456 120.934 110.8C120.934 112.144 121.19 113.296 121.702 114.256C122.214 115.152 122.918 115.856 123.814 116.368C124.774 116.816 125.862 117.04 127.078 117.04Z" fill="#33FFC0"/>
</g>
<path d="M67.688 154C66.984 154 66.376 153.744 65.864 153.232C65.352 152.72 65.096 152.112 65.096 151.408V112.624L54.344 120.88C53.704 121.328 53.064 121.488 52.424 121.36C51.784 121.168 51.208 120.752 50.696 120.112L42.248 109.168C41.928 108.528 41.832 107.856 41.96 107.152C42.088 106.384 42.472 105.808 43.112 105.424L66.248 87.472C66.568 87.216 66.888 87.056 67.208 86.992C67.528 86.864 67.912 86.8 68.36 86.8H86.504C87.208 86.8 87.816 87.056 88.328 87.568C88.84 88.08 89.096 88.688 89.096 89.392V151.408C89.096 152.112 88.84 152.72 88.328 153.232C87.816 153.744 87.208 154 86.504 154H67.688ZM109.606 154C109.03 154 108.518 153.808 108.07 153.424C107.686 152.976 107.494 152.464 107.494 151.888C107.494 151.568 107.526 151.312 107.59 151.12C107.718 150.928 107.814 150.768 107.878 150.64L120.454 133.84C120.134 133.84 119.878 133.808 119.686 133.744C117.382 133.488 114.886 132.848 112.198 131.824C109.51 130.8 106.95 129.392 104.518 127.6C102.15 125.744 100.198 123.44 98.6615 120.688C97.1895 117.872 96.4535 114.608 96.4535 110.896C96.4535 107.632 97.0935 104.496 98.3735 101.488C99.6535 98.48 101.574 95.824 104.134 93.52C106.694 91.152 109.862 89.296 113.638 87.952C117.414 86.544 121.798 85.84 126.79 85.84C131.782 85.84 136.198 86.416 140.038 87.568C143.942 88.72 147.206 90.384 149.83 92.56C152.518 94.672 154.534 97.2 155.878 100.144C157.286 103.088 157.99 106.352 157.99 109.936C157.99 113.072 157.35 116.048 156.07 118.864C154.79 121.616 153.19 124.304 151.27 126.928C149.35 129.552 147.366 132.304 145.318 135.184L132.646 152.08C132.39 152.4 131.974 152.816 131.398 153.328C130.822 153.776 129.99 154 128.902 154H109.606ZM127.078 117.04C128.358 117.04 129.446 116.816 130.342 116.368C131.238 115.856 131.942 115.152 132.454 114.256C132.966 113.296 133.222 112.144 133.222 110.8C133.222 109.456 132.966 108.336 132.454 107.44C131.942 106.48 131.206 105.776 130.246 105.328C129.35 104.816 128.294 104.56 127.078 104.56C125.862 104.56 124.774 104.816 123.814 105.328C122.918 105.776 122.214 106.48 121.702 107.44C121.19 108.336 120.934 109.456 120.934 110.8C120.934 112.144 121.19 113.296 121.702 114.256C122.214 115.152 122.918 115.856 123.814 116.368C124.774 116.816 125.862 117.04 127.078 117.04Z" fill="#296FF9"/>
<g filter="url(#filter1_f_1_4218)">
<path d="M25.904 270C25.376 270 24.92 269.808 24.536 269.424C24.152 269.04 23.96 268.584 23.96 268.056V221.544C23.96 221.016 24.152 220.56 24.536 220.176C24.92 219.792 25.376 219.6 25.904 219.6H37.28C38.24 219.6 38.96 219.864 39.44 220.392C39.92 220.92 40.232 221.304 40.376 221.544L50.816 238.824L61.256 221.544C61.4 221.304 61.712 220.92 62.192 220.392C62.672 219.864 63.392 219.6 64.352 219.6H75.728C76.256 219.6 76.712 219.792 77.096 220.176C77.48 220.56 77.672 221.016 77.672 221.544V268.056C77.672 268.584 77.48 269.04 77.096 269.424C76.712 269.808 76.256 270 75.728 270H62.696C62.168 270 61.712 269.808 61.328 269.424C60.944 269.04 60.752 268.584 60.752 268.056V248.328L56 256.104C55.76 256.488 55.424 256.896 54.992 257.328C54.608 257.712 54.056 257.904 53.336 257.904H48.296C47.576 257.904 47 257.712 46.568 257.328C46.184 256.896 45.872 256.488 45.632 256.104L40.88 248.328V268.056C40.88 268.584 40.688 269.04 40.304 269.424C39.92 269.808 39.464 270 38.936 270H25.904ZM83.2481 270C82.8161 270 82.4321 269.856 82.0961 269.568C81.8081 269.232 81.6641 268.848 81.6641 268.416C81.6641 268.224 81.6881 268.056 81.7361 267.912L97.7921 221.976C97.9361 221.448 98.2721 220.92 98.8001 220.392C99.3281 219.864 100.072 219.6 101.032 219.6H116.656C117.616 219.6 118.36 219.864 118.888 220.392C119.416 220.92 119.752 221.448 119.896 221.976L135.952 267.912C136 268.056 136.024 268.224 136.024 268.416C136.024 268.848 135.856 269.232 135.52 269.568C135.232 269.856 134.872 270 134.44 270H121.12C120.208 270 119.536 269.808 119.104 269.424C118.72 268.992 118.456 268.584 118.312 268.2L116.584 263.448H101.104L99.3761 268.2C99.2321 268.584 98.9681 268.992 98.5841 269.424C98.2001 269.808 97.5281 270 96.5681 270H83.2481ZM104.776 249.408H112.912L108.808 236.016L104.776 249.408ZM148.191 270C147.664 270 147.208 269.808 146.824 269.424C146.44 269.04 146.248 268.584 146.248 268.056V253.872L130.048 221.832C130 221.736 129.952 221.64 129.904 221.544C129.904 221.4 129.904 221.28 129.904 221.184C129.904 220.752 130.048 220.392 130.336 220.104C130.672 219.768 131.056 219.6 131.488 219.6H145.024C145.984 219.6 146.704 219.84 147.184 220.32C147.664 220.8 147.952 221.16 148.048 221.4L155.248 235.872L162.448 221.4C162.544 221.16 162.832 220.8 163.312 220.32C163.792 219.84 164.512 219.6 165.472 219.6H179.008C179.44 219.6 179.8 219.768 180.088 220.104C180.424 220.392 180.592 220.752 180.592 221.184C180.592 221.28 180.568 221.4 180.52 221.544C180.52 221.64 180.496 221.736 180.448 221.832L164.248 253.872V268.056C164.248 268.584 164.056 269.04 163.672 269.424C163.288 269.808 162.832 270 162.304 270H148.191Z" fill="#33FFC0"/>
</g>
<path d="M25.904 270C25.376 270 24.92 269.808 24.536 269.424C24.152 269.04 23.96 268.584 23.96 268.056V221.544C23.96 221.016 24.152 220.56 24.536 220.176C24.92 219.792 25.376 219.6 25.904 219.6H37.28C38.24 219.6 38.96 219.864 39.44 220.392C39.92 220.92 40.232 221.304 40.376 221.544L50.816 238.824L61.256 221.544C61.4 221.304 61.712 220.92 62.192 220.392C62.672 219.864 63.392 219.6 64.352 219.6H75.728C76.256 219.6 76.712 219.792 77.096 220.176C77.48 220.56 77.672 221.016 77.672 221.544V268.056C77.672 268.584 77.48 269.04 77.096 269.424C76.712 269.808 76.256 270 75.728 270H62.696C62.168 270 61.712 269.808 61.328 269.424C60.944 269.04 60.752 268.584 60.752 268.056V248.328L56 256.104C55.76 256.488 55.424 256.896 54.992 257.328C54.608 257.712 54.056 257.904 53.336 257.904H48.296C47.576 257.904 47 257.712 46.568 257.328C46.184 256.896 45.872 256.488 45.632 256.104L40.88 248.328V268.056C40.88 268.584 40.688 269.04 40.304 269.424C39.92 269.808 39.464 270 38.936 270H25.904ZM83.2481 270C82.8161 270 82.4321 269.856 82.0961 269.568C81.8081 269.232 81.6641 268.848 81.6641 268.416C81.6641 268.224 81.6881 268.056 81.7361 267.912L97.7921 221.976C97.9361 221.448 98.2721 220.92 98.8001 220.392C99.3281 219.864 100.072 219.6 101.032 219.6H116.656C117.616 219.6 118.36 219.864 118.888 220.392C119.416 220.92 119.752 221.448 119.896 221.976L135.952 267.912C136 268.056 136.024 268.224 136.024 268.416C136.024 268.848 135.856 269.232 135.52 269.568C135.232 269.856 134.872 270 134.44 270H121.12C120.208 270 119.536 269.808 119.104 269.424C118.72 268.992 118.456 268.584 118.312 268.2L116.584 263.448H101.104L99.3761 268.2C99.2321 268.584 98.9681 268.992 98.5841 269.424C98.2001 269.808 97.5281 270 96.5681 270H83.2481ZM104.776 249.408H112.912L108.808 236.016L104.776 249.408ZM148.191 270C147.664 270 147.208 269.808 146.824 269.424C146.44 269.04 146.248 268.584 146.248 268.056V253.872L130.048 221.832C130 221.736 129.952 221.64 129.904 221.544C129.904 221.4 129.904 221.28 129.904 221.184C129.904 220.752 130.048 220.392 130.336 220.104C130.672 219.768 131.056 219.6 131.488 219.6H145.024C145.984 219.6 146.704 219.84 147.184 220.32C147.664 220.8 147.952 221.16 148.048 221.4L155.248 235.872L162.448 221.4C162.544 221.16 162.832 220.8 163.312 220.32C163.792 219.84 164.512 219.6 165.472 219.6H179.008C179.44 219.6 179.8 219.768 180.088 220.104C180.424 220.392 180.592 220.752 180.592 221.184C180.592 221.28 180.568 221.4 180.52 221.544C180.52 221.64 180.496 221.736 180.448 221.832L164.248 253.872V268.056C164.248 268.584 164.056 269.04 163.672 269.424C163.288 269.808 162.832 270 162.304 270H148.191Z" fill="#296FF9"/>
<defs>
<filter id="filter0_f_1_4218" x="31.768" y="75.84" width="136.222" height="88.16" filterUnits="userSpaceOnUse" color-interpolation-filters="sRGB">
<feFlood flood-opacity="0" result="BackgroundImageFix"/>
<feBlend mode="normal" in="SourceGraphic" in2="BackgroundImageFix" result="shape"/>
<feGaussianBlur stdDeviation="5" result="effect1_foregroundBlur_1_4218"/>
</filter>
<filter id="filter1_f_1_4218" x="13.96" y="209.6" width="176.632" height="70.4" filterUnits="userSpaceOnUse" color-interpolation-filters="sRGB">
<feFlood flood-opacity="0" result="BackgroundImageFix"/>
<feBlend mode="normal" in="SourceGraphic" in2="BackgroundImageFix" result="shape"/>
<feGaussianBlur stdDeviation="5" result="effect1_foregroundBlur_1_4218"/>
</filter>
<linearGradient id="paint0_linear_1_4218" x1="100" y1="100" x2="-25.5" y2="222.5" gradientUnits="userSpaceOnUse">
<stop stop-color="#111356"/>
<stop offset="1" stop-color="#296FF9"/>
</linearGradient>
</defs>
</svg>
