<svg width="200" height="280" viewBox="0 0 200 280" fill="none" xmlns="http://www.w3.org/2000/svg">
<path d="M43.75 0C45.4076 0 46.9973 0.65848 48.1694 1.83058C49.3415 3.00269 50 4.5924 50 6.25V12.5H150V6.25C150 4.5924 150.658 3.00269 151.831 1.83058C153.003 0.65848 154.592 0 156.25 0C157.908 0 159.497 0.65848 160.669 1.83058C161.842 3.00269 162.5 4.5924 162.5 6.25V12.5H175C181.63 12.5 187.989 15.1339 192.678 19.8223C197.366 24.5107 200 30.8696 200 37.5V175C200 181.63 197.366 187.989 192.678 192.678C187.989 197.366 181.63 200 175 200H25C18.3696 200 12.0107 197.366 7.32233 192.678C2.63392 187.989 0 181.63 0 175V37.5C0 30.8696 2.63392 24.5107 7.32233 19.8223C12.0107 15.1339 18.3696 12.5 25 12.5H37.5V6.25C37.5 4.5924 38.1585 3.00269 39.3306 1.83058C40.5027 0.65848 42.0924 0 43.75 0V0ZM12.5 50V175C12.5 178.315 13.817 181.495 16.1612 183.839C18.5054 186.183 21.6848 187.5 25 187.5H175C178.315 187.5 181.495 186.183 183.839 183.839C186.183 181.495 187.5 178.315 187.5 175V50H12.5Z" fill="url(#paint0_linear_1_4103)"/>
<g filter="url(#filter0_f_1_4103)">
<path d="M37.952 154C37.248 154 36.64 153.744 36.128 153.232C35.616 152.72 35.36 152.112 35.36 151.408V141.424C35.36 141.04 35.456 140.304 35.648 139.216C35.84 138.064 36.544 137.072 37.76 136.24L38.816 135.472C45.536 130.608 51.136 126.512 55.616 123.184C60.16 119.856 63.552 117.008 65.792 114.64C68.096 112.208 69.248 110.064 69.248 108.208C69.248 107.312 69.088 106.448 68.768 105.616C68.448 104.784 67.456 104.368 65.792 104.368C64.512 104.368 63.52 104.688 62.816 105.328C62.112 105.904 61.6 106.576 61.28 107.344C60.96 108.112 60.704 108.752 60.512 109.264C60.192 110.16 59.68 110.768 58.976 111.088C58.336 111.344 57.568 111.472 56.672 111.472H38.624C38.048 111.472 37.536 111.28 37.088 110.896C36.704 110.448 36.512 109.936 36.512 109.36C36.576 105.712 37.344 102.448 38.816 99.568C40.352 96.624 42.432 94.096 45.056 91.984C47.68 89.872 50.752 88.272 54.272 87.184C57.792 86.032 61.6 85.456 65.696 85.456C71.52 85.456 76.576 86.32 80.864 88.048C85.152 89.712 88.48 92.144 90.848 95.344C93.216 98.544 94.4 102.416 94.4 106.96C94.4 110.48 93.536 113.744 91.808 116.752C90.08 119.76 87.648 122.64 84.512 125.392C81.44 128.08 77.824 130.864 73.664 133.744L72.992 134.224H93.248C93.952 134.224 94.56 134.48 95.072 134.992C95.584 135.504 95.84 136.112 95.84 136.816V151.408C95.84 152.112 95.584 152.72 95.072 153.232C94.56 153.744 93.952 154 93.248 154H37.952ZM133.962 154.96C129.162 154.96 124.938 154.352 121.29 153.136C117.642 151.856 114.57 150.128 112.074 147.952C109.578 145.712 107.626 143.12 106.218 140.176C104.874 137.168 104.074 133.904 103.818 130.384C103.69 128.656 103.594 126.544 103.53 124.048C103.53 121.552 103.53 119.056 103.53 116.56C103.594 114 103.69 111.824 103.818 110.032C104.074 106.512 104.906 103.28 106.314 100.336C107.786 97.392 109.802 94.864 112.362 92.752C114.922 90.576 117.994 88.88 121.578 87.664C125.226 86.448 129.354 85.84 133.962 85.84C138.57 85.84 142.666 86.448 146.25 87.664C149.898 88.88 153.002 90.576 155.562 92.752C158.122 94.864 160.106 97.392 161.514 100.336C162.986 103.28 163.85 106.512 164.106 110.032C164.234 111.824 164.298 114 164.298 116.56C164.362 119.056 164.362 121.552 164.298 124.048C164.298 126.544 164.234 128.656 164.106 130.384C163.85 133.904 163.018 137.168 161.61 140.176C160.266 143.12 158.346 145.712 155.85 147.952C153.354 150.128 150.282 151.856 146.634 153.136C142.986 154.352 138.762 154.96 133.962 154.96ZM133.962 136.144C135.818 136.144 137.13 135.568 137.898 134.416C138.666 133.2 139.082 131.696 139.146 129.904C139.274 128.048 139.338 125.968 139.338 123.664C139.402 121.36 139.402 119.056 139.338 116.752C139.338 114.384 139.274 112.336 139.146 110.608C139.082 108.944 138.666 107.504 137.898 106.288C137.194 105.072 135.882 104.432 133.962 104.368C132.042 104.432 130.73 105.072 130.026 106.288C129.322 107.504 128.906 108.944 128.778 110.608C128.714 112.336 128.65 114.384 128.586 116.752C128.586 119.056 128.586 121.36 128.586 123.664C128.65 125.968 128.714 128.048 128.778 129.904C128.906 131.696 129.354 133.2 130.122 134.416C130.89 135.568 132.17 136.144 133.962 136.144Z" fill="#33FFC0"/>
</g>
<path d="M37.952 154C37.248 154 36.64 153.744 36.128 153.232C35.616 152.72 35.36 152.112 35.36 151.408V141.424C35.36 141.04 35.456 140.304 35.648 139.216C35.84 138.064 36.544 137.072 37.76 136.24L38.816 135.472C45.536 130.608 51.136 126.512 55.616 123.184C60.16 119.856 63.552 117.008 65.792 114.64C68.096 112.208 69.248 110.064 69.248 108.208C69.248 107.312 69.088 106.448 68.768 105.616C68.448 104.784 67.456 104.368 65.792 104.368C64.512 104.368 63.52 104.688 62.816 105.328C62.112 105.904 61.6 106.576 61.28 107.344C60.96 108.112 60.704 108.752 60.512 109.264C60.192 110.16 59.68 110.768 58.976 111.088C58.336 111.344 57.568 111.472 56.672 111.472H38.624C38.048 111.472 37.536 111.28 37.088 110.896C36.704 110.448 36.512 109.936 36.512 109.36C36.576 105.712 37.344 102.448 38.816 99.568C40.352 96.624 42.432 94.096 45.056 91.984C47.68 89.872 50.752 88.272 54.272 87.184C57.792 86.032 61.6 85.456 65.696 85.456C71.52 85.456 76.576 86.32 80.864 88.048C85.152 89.712 88.48 92.144 90.848 95.344C93.216 98.544 94.4 102.416 94.4 106.96C94.4 110.48 93.536 113.744 91.808 116.752C90.08 119.76 87.648 122.64 84.512 125.392C81.44 128.08 77.824 130.864 73.664 133.744L72.992 134.224H93.248C93.952 134.224 94.56 134.48 95.072 134.992C95.584 135.504 95.84 136.112 95.84 136.816V151.408C95.84 152.112 95.584 152.72 95.072 153.232C94.56 153.744 93.952 154 93.248 154H37.952ZM133.962 154.96C129.162 154.96 124.938 154.352 121.29 153.136C117.642 151.856 114.57 150.128 112.074 147.952C109.578 145.712 107.626 143.12 106.218 140.176C104.874 137.168 104.074 133.904 103.818 130.384C103.69 128.656 103.594 126.544 103.53 124.048C103.53 121.552 103.53 119.056 103.53 116.56C103.594 114 103.69 111.824 103.818 110.032C104.074 106.512 104.906 103.28 106.314 100.336C107.786 97.392 109.802 94.864 112.362 92.752C114.922 90.576 117.994 88.88 121.578 87.664C125.226 86.448 129.354 85.84 133.962 85.84C138.57 85.84 142.666 86.448 146.25 87.664C149.898 88.88 153.002 90.576 155.562 92.752C158.122 94.864 160.106 97.392 161.514 100.336C162.986 103.28 163.85 106.512 164.106 110.032C164.234 111.824 164.298 114 164.298 116.56C164.362 119.056 164.362 121.552 164.298 124.048C164.298 126.544 164.234 128.656 164.106 130.384C163.85 133.904 163.018 137.168 161.61 140.176C160.266 143.12 158.346 145.712 155.85 147.952C153.354 150.128 150.282 151.856 146.634 153.136C142.986 154.352 138.762 154.96 133.962 154.96ZM133.962 136.144C135.818 136.144 137.13 135.568 137.898 134.416C138.666 133.2 139.082 131.696 139.146 129.904C139.274 128.048 139.338 125.968 139.338 123.664C139.402 121.36 139.402 119.056 139.338 116.752C139.338 114.384 139.274 112.336 139.146 110.608C139.082 108.944 138.666 107.504 137.898 106.288C137.194 105.072 135.882 104.432 133.962 104.368C132.042 104.432 130.73 105.072 130.026 106.288C129.322 107.504 128.906 108.944 128.778 110.608C128.714 112.336 128.65 114.384 128.586 116.752C128.586 119.056 128.586 121.36 128.586 123.664C128.65 125.968 128.714 128.048 128.778 129.904C128.906 131.696 129.354 133.2 130.122 134.416C130.89 135.568 132.17 136.144 133.962 136.144Z" fill="#296FF9"/>
<g filter="url(#filter1_f_1_4103)">
<path d="M25.904 270C25.376 270 24.92 269.808 24.536 269.424C24.152 269.04 23.96 268.584 23.96 268.056V221.544C23.96 221.016 24.152 220.56 24.536 220.176C24.92 219.792 25.376 219.6 25.904 219.6H37.28C38.24 219.6 38.96 219.864 39.44 220.392C39.92 220.92 40.232 221.304 40.376 221.544L50.816 238.824L61.256 221.544C61.4 221.304 61.712 220.92 62.192 220.392C62.672 219.864 63.392 219.6 64.352 219.6H75.728C76.256 219.6 76.712 219.792 77.096 220.176C77.48 220.56 77.672 221.016 77.672 221.544V268.056C77.672 268.584 77.48 269.04 77.096 269.424C76.712 269.808 76.256 270 75.728 270H62.696C62.168 270 61.712 269.808 61.328 269.424C60.944 269.04 60.752 268.584 60.752 268.056V248.328L56 256.104C55.76 256.488 55.424 256.896 54.992 257.328C54.608 257.712 54.056 257.904 53.336 257.904H48.296C47.576 257.904 47 257.712 46.568 257.328C46.184 256.896 45.872 256.488 45.632 256.104L40.88 248.328V268.056C40.88 268.584 40.688 269.04 40.304 269.424C39.92 269.808 39.464 270 38.936 270H25.904ZM83.2481 270C82.8161 270 82.4321 269.856 82.0961 269.568C81.8081 269.232 81.6641 268.848 81.6641 268.416C81.6641 268.224 81.6881 268.056 81.7361 267.912L97.7921 221.976C97.9361 221.448 98.2721 220.92 98.8001 220.392C99.3281 219.864 100.072 219.6 101.032 219.6H116.656C117.616 219.6 118.36 219.864 118.888 220.392C119.416 220.92 119.752 221.448 119.896 221.976L135.952 267.912C136 268.056 136.024 268.224 136.024 268.416C136.024 268.848 135.856 269.232 135.52 269.568C135.232 269.856 134.872 270 134.44 270H121.12C120.208 270 119.536 269.808 119.104 269.424C118.72 268.992 118.456 268.584 118.312 268.2L116.584 263.448H101.104L99.3761 268.2C99.2321 268.584 98.9681 268.992 98.5841 269.424C98.2001 269.808 97.5281 270 96.5681 270H83.2481ZM104.776 249.408H112.912L108.808 236.016L104.776 249.408ZM148.191 270C147.664 270 147.208 269.808 146.824 269.424C146.44 269.04 146.248 268.584 146.248 268.056V253.872L130.048 221.832C130 221.736 129.952 221.64 129.904 221.544C129.904 221.4 129.904 221.28 129.904 221.184C129.904 220.752 130.048 220.392 130.336 220.104C130.672 219.768 131.056 219.6 131.488 219.6H145.024C145.984 219.6 146.704 219.84 147.184 220.32C147.664 220.8 147.952 221.16 148.048 221.4L155.248 235.872L162.448 221.4C162.544 221.16 162.832 220.8 163.312 220.32C163.792 219.84 164.512 219.6 165.472 219.6H179.008C179.44 219.6 179.8 219.768 180.088 220.104C180.424 220.392 180.592 220.752 180.592 221.184C180.592 221.28 180.568 221.4 180.52 221.544C180.52 221.64 180.496 221.736 180.448 221.832L164.248 253.872V268.056C164.248 268.584 164.056 269.04 163.672 269.424C163.288 269.808 162.832 270 162.304 270H148.191Z" fill="#33FFC0"/>
</g>
<path d="M25.904 270C25.376 270 24.92 269.808 24.536 269.424C24.152 269.04 23.96 268.584 23.96 268.056V221.544C23.96 221.016 24.152 220.56 24.536 220.176C24.92 219.792 25.376 219.6 25.904 219.6H37.28C38.24 219.6 38.96 219.864 39.44 220.392C39.92 220.92 40.232 221.304 40.376 221.544L50.816 238.824L61.256 221.544C61.4 221.304 61.712 220.92 62.192 220.392C62.672 219.864 63.392 219.6 64.352 219.6H75.728C76.256 219.6 76.712 219.792 77.096 220.176C77.48 220.56 77.672 221.016 77.672 221.544V268.056C77.672 268.584 77.48 269.04 77.096 269.424C76.712 269.808 76.256 270 75.728 270H62.696C62.168 270 61.712 269.808 61.328 269.424C60.944 269.04 60.752 268.584 60.752 268.056V248.328L56 256.104C55.76 256.488 55.424 256.896 54.992 257.328C54.608 257.712 54.056 257.904 53.336 257.904H48.296C47.576 257.904 47 257.712 46.568 257.328C46.184 256.896 45.872 256.488 45.632 256.104L40.88 248.328V268.056C40.88 268.584 40.688 269.04 40.304 269.424C39.92 269.808 39.464 270 38.936 270H25.904ZM83.2481 270C82.8161 270 82.4321 269.856 82.0961 269.568C81.8081 269.232 81.6641 268.848 81.6641 268.416C81.6641 268.224 81.6881 268.056 81.7361 267.912L97.7921 221.976C97.9361 221.448 98.2721 220.92 98.8001 220.392C99.3281 219.864 100.072 219.6 101.032 219.6H116.656C117.616 219.6 118.36 219.864 118.888 220.392C119.416 220.92 119.752 221.448 119.896 221.976L135.952 267.912C136 268.056 136.024 268.224 136.024 268.416C136.024 268.848 135.856 269.232 135.52 269.568C135.232 269.856 134.872 270 134.44 270H121.12C120.208 270 119.536 269.808 119.104 269.424C118.72 268.992 118.456 268.584 118.312 268.2L116.584 263.448H101.104L99.3761 268.2C99.2321 268.584 98.9681 268.992 98.5841 269.424C98.2001 269.808 97.5281 270 96.5681 270H83.2481ZM104.776 249.408H112.912L108.808 236.016L104.776 249.408ZM148.191 270C147.664 270 147.208 269.808 146.824 269.424C146.44 269.04 146.248 268.584 146.248 268.056V253.872L130.048 221.832C130 221.736 129.952 221.64 129.904 221.544C129.904 221.4 129.904 221.28 129.904 221.184C129.904 220.752 130.048 220.392 130.336 220.104C130.672 219.768 131.056 219.6 131.488 219.6H145.024C145.984 219.6 146.704 219.84 147.184 220.32C147.664 220.8 147.952 221.16 148.048 221.4L155.248 235.872L162.448 221.4C162.544 221.16 162.832 220.8 163.312 220.32C163.792 219.84 164.512 219.6 165.472 219.6H179.008C179.44 219.6 179.8 219.768 180.088 220.104C180.424 220.392 180.592 220.752 180.592 221.184C180.592 221.28 180.568 221.4 180.52 221.544C180.52 221.64 180.496 221.736 180.448 221.832L164.248 253.872V268.056C164.248 268.584 164.056 269.04 163.672 269.424C163.288 269.808 162.832 270 162.304 270H148.191Z" fill="#296FF9"/>
<defs>
<filter id="filter0_f_1_4103" x="25.36" y="75.4561" width="149.034" height="89.5039" filterUnits="userSpaceOnUse" color-interpolation-filters="sRGB">
<feFlood flood-opacity="0" result="BackgroundImageFix"/>
<feBlend mode="normal" in="SourceGraphic" in2="BackgroundImageFix" result="shape"/>
<feGaussianBlur stdDeviation="5" result="effect1_foregroundBlur_1_4103"/>
</filter>
<filter id="filter1_f_1_4103" x="13.96" y="209.6" width="176.632" height="70.4" filterUnits="userSpaceOnUse" color-interpolation-filters="sRGB">
<feFlood flood-opacity="0" result="BackgroundImageFix"/>
<feBlend mode="normal" in="SourceGraphic" in2="BackgroundImageFix" result="shape"/>
<feGaussianBlur stdDeviation="5" result="effect1_foregroundBlur_1_4103"/>
</filter>
<linearGradient id="paint0_linear_1_4103" x1="100" y1="100" x2="-25.5" y2="222.5" gradientUnits="userSpaceOnUse">
<stop stop-color="#111356"/>
<stop offset="1" stop-color="#296FF9"/>
</linearGradient>
</defs>
</svg>
