<svg width="171" height="389" viewBox="0 0 171 389" fill="none" xmlns="http://www.w3.org/2000/svg">
<g opacity="0.8" filter="url(#filter0_f_56_149)">
<path d="M133.848 45.704L137.384 49.2395L137.384 49.2395L133.848 45.704ZM72.936 46.856V41.856H62.7927L68.9702 49.9011L72.936 46.856ZM85.32 62.984L89.4162 60.1167L89.3529 60.0263L89.2857 59.9389L85.32 62.984ZM86.04 65.864L90.8291 67.3007L90.8968 67.0753L90.9429 66.8446L86.04 65.864ZM84.168 68.456L87.2233 72.414L87.2576 72.3874L87.2915 72.3603L84.168 68.456ZM67.752 81.128L69.9881 85.6001L70.4226 85.3828L70.8073 85.086L67.752 81.128ZM64.728 81.56L65.6224 76.6407L65.5863 76.6341L65.55 76.628L64.728 81.56ZM62.136 79.832L66.4235 77.2595L66.2696 77.0031L66.0863 76.7668L62.136 79.832ZM35.208 45.128L39.1583 42.0628L39.1355 42.0335L39.1123 42.0045L35.208 45.128ZM34.488 43.688L39.3909 42.7074L39.3009 42.2573L39.1304 41.831L34.488 43.688ZM133.848 12.008L130.312 15.5435L133.848 12.008ZM130 42.968C130 42.8749 130.02 42.7024 130.104 42.5037C130.186 42.3079 130.284 42.197 130.312 42.1685L137.384 49.2395C139.059 47.5638 140 45.3918 140 42.968H130ZM130.312 42.1685C130.341 42.1399 130.452 42.0423 130.648 41.9598C130.846 41.8762 131.019 41.856 131.112 41.856V51.856C133.536 51.856 135.708 50.9153 137.384 49.2395L130.312 42.1685ZM131.112 41.856H72.936V51.856L131.112 51.856V41.856ZM68.9702 49.9011L81.3542 66.0291L89.2857 59.9389L76.9017 43.8109L68.9702 49.9011ZM81.2238 65.8513C81.2725 65.9208 81.2061 65.848 81.1533 65.6367C81.0957 65.4065 81.0863 65.1374 81.1371 64.8834L90.9429 66.8446C91.4547 64.2855 90.7048 61.9576 89.4162 60.1167L81.2238 65.8513ZM81.2509 64.4272C81.2628 64.3875 81.2767 64.3543 81.2889 64.3299C81.3009 64.3059 81.3077 64.2975 81.3026 64.3045C81.2919 64.3194 81.2246 64.4076 81.0445 64.5517L87.2915 72.3603C88.8626 71.1035 90.1889 69.4347 90.8291 67.3007L81.2509 64.4272ZM81.1127 64.498L64.6967 77.17L70.8073 85.086L87.2233 72.414L81.1127 64.498ZM65.5159 76.6559C65.5003 76.6637 65.4992 76.6628 65.5118 76.6588C65.5247 76.6548 65.5445 76.6497 65.5689 76.6463C65.5933 76.6428 65.6137 76.642 65.6272 76.6424C65.6404 76.6427 65.6397 76.6438 65.6224 76.6407L63.8336 86.4793C65.954 86.8649 68.0604 86.564 69.9881 85.6001L65.5159 76.6559ZM65.55 76.628C65.5846 76.6338 65.7635 76.6731 65.9895 76.8237C66.2206 76.9778 66.3609 77.1552 66.4235 77.2595L57.8485 82.4045C59.2147 84.6815 61.3804 86.071 63.906 86.492L65.55 76.628ZM66.0863 76.7668L39.1583 42.0628L31.2577 48.1932L58.1857 82.8972L66.0863 76.7668ZM39.1123 42.0045C39.1028 41.9926 39.2951 42.2286 39.3909 42.7074L29.5851 44.6686C29.8729 46.1074 30.5452 47.3034 31.3037 48.2515L39.1123 42.0045ZM39.1304 41.831C39.1837 41.9643 39.2004 42.0524 39.204 42.074C39.2074 42.0946 39.2 42.0608 39.2 41.96H29.2C29.2 43.0866 29.3582 44.3264 29.8456 45.545L39.1304 41.831ZM39.2 41.96L39.2 14.744H29.2V41.96H39.2ZM39.2 14.744C39.2 14.8371 39.1798 15.0096 39.0962 15.2083C39.0137 15.4041 38.9161 15.515 38.8875 15.5435L31.8165 8.47246C30.1407 10.1482 29.2 12.3202 29.2 14.744H39.2ZM38.8875 15.5435C38.859 15.5721 38.7481 15.6697 38.5523 15.7522C38.3536 15.8358 38.1811 15.856 38.088 15.856V5.856C35.6642 5.856 33.4922 6.79671 31.8165 8.47246L38.8875 15.5435ZM38.088 15.856L131.112 15.856V5.856L38.088 5.856V15.856ZM131.112 15.856C131.019 15.856 130.846 15.8358 130.648 15.7522C130.452 15.6697 130.341 15.5721 130.312 15.5435L137.384 8.47247C135.708 6.7967 133.536 5.856 131.112 5.856V15.856ZM130.312 15.5435C130.284 15.515 130.186 15.4041 130.104 15.2083C130.02 15.0096 130 14.8371 130 14.744H140C140 12.3202 139.059 10.1482 137.384 8.47247L130.312 15.5435ZM130 14.744V42.968H140V14.744H130Z" fill="#33FFC0"/>
</g>
<path opacity="0.8" d="M133.848 45.704L137.384 49.2395L137.384 49.2395L133.848 45.704ZM72.936 46.856V41.856H62.7927L68.9702 49.9011L72.936 46.856ZM85.32 62.984L89.4162 60.1167L89.3529 60.0263L89.2857 59.9389L85.32 62.984ZM86.04 65.864L90.8291 67.3007L90.8968 67.0753L90.9429 66.8446L86.04 65.864ZM84.168 68.456L87.2233 72.414L87.2576 72.3874L87.2915 72.3603L84.168 68.456ZM67.752 81.128L69.9881 85.6001L70.4226 85.3828L70.8073 85.086L67.752 81.128ZM64.728 81.56L65.6224 76.6407L65.5863 76.6341L65.55 76.628L64.728 81.56ZM62.136 79.832L66.4235 77.2595L66.2696 77.0031L66.0863 76.7668L62.136 79.832ZM35.208 45.128L39.1583 42.0628L39.1355 42.0335L39.1123 42.0045L35.208 45.128ZM34.488 43.688L39.3909 42.7074L39.3009 42.2573L39.1304 41.831L34.488 43.688ZM133.848 12.008L130.312 15.5435L133.848 12.008ZM130 42.968C130 42.8749 130.02 42.7024 130.104 42.5037C130.186 42.3079 130.284 42.197 130.312 42.1685L137.384 49.2395C139.059 47.5638 140 45.3918 140 42.968H130ZM130.312 42.1685C130.341 42.1399 130.452 42.0423 130.648 41.9598C130.846 41.8762 131.019 41.856 131.112 41.856V51.856C133.536 51.856 135.708 50.9153 137.384 49.2395L130.312 42.1685ZM131.112 41.856H72.936V51.856L131.112 51.856V41.856ZM68.9702 49.9011L81.3542 66.0291L89.2857 59.9389L76.9017 43.8109L68.9702 49.9011ZM81.2238 65.8513C81.2725 65.9208 81.2061 65.848 81.1533 65.6367C81.0957 65.4065 81.0863 65.1374 81.1371 64.8834L90.9429 66.8446C91.4547 64.2855 90.7048 61.9576 89.4162 60.1167L81.2238 65.8513ZM81.2509 64.4272C81.2628 64.3875 81.2767 64.3543 81.2889 64.3299C81.3009 64.3059 81.3077 64.2975 81.3026 64.3045C81.2919 64.3194 81.2246 64.4076 81.0445 64.5517L87.2915 72.3603C88.8626 71.1035 90.1889 69.4347 90.8291 67.3007L81.2509 64.4272ZM81.1127 64.498L64.6967 77.17L70.8073 85.086L87.2233 72.414L81.1127 64.498ZM65.5159 76.6559C65.5003 76.6637 65.4992 76.6628 65.5118 76.6588C65.5247 76.6548 65.5445 76.6497 65.5689 76.6463C65.5933 76.6428 65.6137 76.642 65.6272 76.6424C65.6404 76.6427 65.6397 76.6438 65.6224 76.6407L63.8336 86.4793C65.954 86.8649 68.0604 86.564 69.9881 85.6001L65.5159 76.6559ZM65.55 76.628C65.5846 76.6338 65.7635 76.6731 65.9895 76.8237C66.2206 76.9778 66.3609 77.1552 66.4235 77.2595L57.8485 82.4045C59.2147 84.6815 61.3804 86.071 63.906 86.492L65.55 76.628ZM66.0863 76.7668L39.1583 42.0628L31.2577 48.1932L58.1857 82.8972L66.0863 76.7668ZM39.1123 42.0045C39.1028 41.9926 39.2951 42.2286 39.3909 42.7074L29.5851 44.6686C29.8729 46.1074 30.5452 47.3034 31.3037 48.2515L39.1123 42.0045ZM39.1304 41.831C39.1837 41.9643 39.2004 42.0524 39.204 42.074C39.2074 42.0946 39.2 42.0608 39.2 41.96H29.2C29.2 43.0866 29.3582 44.3264 29.8456 45.545L39.1304 41.831ZM39.2 41.96L39.2 14.744H29.2V41.96H39.2ZM39.2 14.744C39.2 14.8371 39.1798 15.0096 39.0962 15.2083C39.0137 15.4041 38.9161 15.515 38.8875 15.5435L31.8165 8.47246C30.1407 10.1482 29.2 12.3202 29.2 14.744H39.2ZM38.8875 15.5435C38.859 15.5721 38.7481 15.6697 38.5523 15.7522C38.3536 15.8358 38.1811 15.856 38.088 15.856V5.856C35.6642 5.856 33.4922 6.79671 31.8165 8.47246L38.8875 15.5435ZM38.088 15.856L131.112 15.856V5.856L38.088 5.856V15.856ZM131.112 15.856C131.019 15.856 130.846 15.8358 130.648 15.7522C130.452 15.6697 130.341 15.5721 130.312 15.5435L137.384 8.47247C135.708 6.7967 133.536 5.856 131.112 5.856V15.856ZM130.312 15.5435C130.284 15.515 130.186 15.4041 130.104 15.2083C130.02 15.0096 130 14.8371 130 14.744H140C140 12.3202 139.059 10.1482 137.384 8.47247L130.312 15.5435ZM130 14.744V42.968H140V14.744H130Z" fill="#296FF9"/>
<g filter="url(#filter1_f_56_149)">
<path d="M135 374.192C135 375.248 134.616 376.16 133.848 376.928C133.08 377.696 132.168 378.08 131.112 378.08H38.088C37.032 378.08 36.12 377.696 35.352 376.928C34.584 376.16 34.2 375.248 34.2 374.192V332.72C34.2 323.696 35.736 315.632 38.808 308.528C41.784 301.424 46.2 295.76 52.056 291.536C57.912 287.216 65.16 284.912 73.8 284.624C77.928 284.432 81.576 284.336 84.744 284.336C87.816 284.336 91.32 284.432 95.256 284.624C104.28 285.008 111.768 287.216 117.72 291.248C123.576 295.28 127.944 300.8 130.824 307.808C133.608 314.72 135 322.784 135 332V374.192ZM106.92 342.08V332.72C106.92 330.608 106.536 328.736 105.768 327.104C104.904 325.376 103.608 323.984 101.88 322.928C100.152 321.872 97.944 321.296 95.256 321.2C92.472 321.008 89.976 320.912 87.768 320.912C85.56 320.816 83.352 320.816 81.144 320.912C78.84 320.912 76.392 321.008 73.8 321.2C69.768 321.392 66.84 322.688 65.016 325.088C63.192 327.392 62.28 330.176 62.28 333.44V342.08H106.92ZM135 278.769C135 279.633 134.712 280.401 134.136 281.073C133.464 281.649 132.696 281.938 131.832 281.938C131.448 281.938 131.112 281.889 130.824 281.793L38.952 249.681C37.896 249.393 36.84 248.721 35.784 247.665C34.728 246.609 34.2 245.121 34.2 243.201V211.953C34.2 210.033 34.728 208.545 35.784 207.489C36.84 206.433 37.896 205.761 38.952 205.473L130.824 173.361C131.112 173.265 131.448 173.217 131.832 173.217C132.696 173.217 133.464 173.553 134.136 174.225C134.712 174.801 135 175.521 135 176.385V203.025C135 204.849 134.616 206.193 133.848 207.057C132.984 207.825 132.168 208.353 131.4 208.641L121.896 212.097V243.057L131.4 246.513C132.168 246.801 132.984 247.329 133.848 248.097C134.616 248.865 135 250.209 135 252.129V278.769ZM93.816 235.713V219.441L67.032 227.649L93.816 235.713ZM135 148.883C135 149.939 134.616 150.851 133.848 151.619C133.08 152.387 132.168 152.771 131.112 152.771H102.744L38.664 185.171C38.472 185.267 38.28 185.363 38.088 185.459C37.8 185.459 37.56 185.459 37.368 185.459C36.504 185.459 35.784 185.171 35.208 184.595C34.536 183.923 34.2 183.155 34.2 182.291V155.219C34.2 153.299 34.68 151.859 35.64 150.899C36.6 149.939 37.32 149.363 37.8 149.171L66.744 134.771L37.8 120.371C37.32 120.179 36.6 119.603 35.64 118.643C34.68 117.683 34.2 116.243 34.2 114.323L34.2 87.2506C34.2 86.3866 34.536 85.6666 35.208 85.0906C35.784 84.4186 36.504 84.0826 37.368 84.0826C37.56 84.0826 37.8 84.1306 38.088 84.2266C38.28 84.2266 38.472 84.2746 38.664 84.3706L102.744 116.771H131.112C132.168 116.771 133.08 117.155 133.848 117.923C134.616 118.691 135 119.603 135 120.659V148.883Z" fill="#33FFC0"/>
</g>
<path d="M135 374.192C135 375.248 134.616 376.16 133.848 376.928C133.08 377.696 132.168 378.08 131.112 378.08H38.088C37.032 378.08 36.12 377.696 35.352 376.928C34.584 376.16 34.2 375.248 34.2 374.192V332.72C34.2 323.696 35.736 315.632 38.808 308.528C41.784 301.424 46.2 295.76 52.056 291.536C57.912 287.216 65.16 284.912 73.8 284.624C77.928 284.432 81.576 284.336 84.744 284.336C87.816 284.336 91.32 284.432 95.256 284.624C104.28 285.008 111.768 287.216 117.72 291.248C123.576 295.28 127.944 300.8 130.824 307.808C133.608 314.72 135 322.784 135 332V374.192ZM106.92 342.08V332.72C106.92 330.608 106.536 328.736 105.768 327.104C104.904 325.376 103.608 323.984 101.88 322.928C100.152 321.872 97.944 321.296 95.256 321.2C92.472 321.008 89.976 320.912 87.768 320.912C85.56 320.816 83.352 320.816 81.144 320.912C78.84 320.912 76.392 321.008 73.8 321.2C69.768 321.392 66.84 322.688 65.016 325.088C63.192 327.392 62.28 330.176 62.28 333.44V342.08H106.92ZM135 278.769C135 279.633 134.712 280.401 134.136 281.073C133.464 281.649 132.696 281.938 131.832 281.938C131.448 281.938 131.112 281.889 130.824 281.793L38.952 249.681C37.896 249.393 36.84 248.721 35.784 247.665C34.728 246.609 34.2 245.121 34.2 243.201V211.953C34.2 210.033 34.728 208.545 35.784 207.489C36.84 206.433 37.896 205.761 38.952 205.473L130.824 173.361C131.112 173.265 131.448 173.217 131.832 173.217C132.696 173.217 133.464 173.553 134.136 174.225C134.712 174.801 135 175.521 135 176.385V203.025C135 204.849 134.616 206.193 133.848 207.057C132.984 207.825 132.168 208.353 131.4 208.641L121.896 212.097V243.057L131.4 246.513C132.168 246.801 132.984 247.329 133.848 248.097C134.616 248.865 135 250.209 135 252.129V278.769ZM93.816 235.713V219.441L67.032 227.649L93.816 235.713ZM135 148.883C135 149.939 134.616 150.851 133.848 151.619C133.08 152.387 132.168 152.771 131.112 152.771H102.744L38.664 185.171C38.472 185.267 38.28 185.363 38.088 185.459C37.8 185.459 37.56 185.459 37.368 185.459C36.504 185.459 35.784 185.171 35.208 184.595C34.536 183.923 34.2 183.155 34.2 182.291V155.219C34.2 153.299 34.68 151.859 35.64 150.899C36.6 149.939 37.32 149.363 37.8 149.171L66.744 134.771L37.8 120.371C37.32 120.179 36.6 119.603 35.64 118.643C34.68 117.683 34.2 116.243 34.2 114.323L34.2 87.2506C34.2 86.3866 34.536 85.6666 35.208 85.0906C35.784 84.4186 36.504 84.0826 37.368 84.0826C37.56 84.0826 37.8 84.1306 38.088 84.2266C38.28 84.2266 38.472 84.2746 38.664 84.3706L102.744 116.771H131.112C132.168 116.771 133.08 117.155 133.848 117.923C134.616 118.691 135 119.603 135 120.659V148.883Z" fill="#296FF9"/>
<defs>
<filter id="filter0_f_56_149" x="24.2" y="0.855957" width="120.8" height="90.9921" filterUnits="userSpaceOnUse" color-interpolation-filters="sRGB">
<feFlood flood-opacity="0" result="BackgroundImageFix"/>
<feBlend mode="normal" in="SourceGraphic" in2="BackgroundImageFix" result="shape"/>
<feGaussianBlur stdDeviation="5" result="effect1_foregroundBlur_56_149"/>
</filter>
<filter id="filter1_f_56_149" x="24.2" y="74.0826" width="120.8" height="313.997" filterUnits="userSpaceOnUse" color-interpolation-filters="sRGB">
<feFlood flood-opacity="0" result="BackgroundImageFix"/>
<feBlend mode="normal" in="SourceGraphic" in2="BackgroundImageFix" result="shape"/>
<feGaussianBlur stdDeviation="5" result="effect1_foregroundBlur_56_149"/>
</filter>
</defs>
</svg>
