<svg width="171" height="412" viewBox="0 0 171 412" fill="none" xmlns="http://www.w3.org/2000/svg">
<g opacity="0.8" filter="url(#filter0_f_56_77)">
<path d="M112.824 100.528L113.693 95.6041L113.669 95.5999L113.646 95.596L112.824 100.528ZM108.36 97.36L112.487 94.5366L112.446 94.4773L112.404 94.4191L108.36 97.36ZM107.208 95.776L103.158 98.7077L103.164 98.7169L107.208 95.776ZM88.776 70.576L84.7422 73.5304L84.7522 73.544L84.7623 73.5576L88.776 70.576ZM75.96 55.312L72.5213 58.9418L72.524 58.9443L75.96 55.312ZM62.424 50.848L64.2189 55.5147V55.5147L62.424 50.848ZM61.992 59.776L65.8618 56.6098L65.7793 56.509L65.6917 56.4126L61.992 59.776ZM67.896 63.232L66.1404 67.9136L66.1772 67.9275L66.2143 67.9407L67.896 63.232ZM70.632 65.536L75.2744 63.679L75.2316 63.572L75.1838 63.467L70.632 65.536ZM70.344 98.368L73.598 102.164L73.89 101.914L74.1403 101.622L70.344 98.368ZM68.04 99.232L67.9523 104.231L67.9961 104.232H68.04V99.232ZM53.352 95.776L51.0392 100.209L51.0578 100.219L51.0764 100.228L53.352 95.776ZM41.976 86.416L45.8711 83.281L41.976 86.416ZM34.776 72.592L39.553 71.1155L39.5408 71.076L39.528 71.0368L34.776 72.592ZM36.072 32.704L40.7096 34.5729L40.7216 34.543L40.7333 34.5129L36.072 32.704ZM47.016 17.728L49.9902 21.7472V21.7472L47.016 17.728ZM79.128 16.288L81.6186 11.9525L79.128 16.288ZM92.088 27.232L95.8509 23.9395L95.8461 23.934L92.088 27.232ZM104.616 43.504L100.505 46.35L100.526 46.3803L100.547 46.4102L104.616 43.504ZM105.336 44.512L101.267 47.4182L110.336 60.1143V44.512H105.336ZM106.488 11.392L110.024 14.9275L110.024 14.9275L106.488 11.392ZM133.848 11.392L130.312 14.9275V14.9275L133.848 11.392ZM130 97.072C130 96.9789 130.02 96.8064 130.104 96.6077C130.186 96.4119 130.284 96.301 130.312 96.2725L137.384 103.344C139.059 101.668 140 99.4958 140 97.072L130 97.072ZM130.312 96.2725C130.341 96.2439 130.452 96.1463 130.648 96.0638C130.846 95.9802 131.019 95.96 131.112 95.96V105.96C133.536 105.96 135.708 105.019 137.384 103.344L130.312 96.2725ZM131.112 95.96L116.136 95.96V105.96H131.112V95.96ZM116.136 95.96C116.18 95.96 116.019 95.9587 115.523 95.894C115.071 95.8351 114.467 95.7407 113.693 95.6041L111.955 105.452C113.527 105.729 115.054 105.96 116.136 105.96V95.96ZM113.646 95.596C113.592 95.587 113.179 95.5487 112.487 94.5366L104.233 100.183C106.037 102.819 108.6 104.893 112.002 105.46L113.646 95.596ZM112.404 94.4191L111.252 92.8351L103.164 98.7169L104.316 100.301L112.404 94.4191ZM111.258 92.8443C103.955 82.7548 97.7984 74.3368 92.7897 67.5944L84.7623 73.5576C89.7376 80.2552 95.8686 88.6372 103.158 98.7077L111.258 92.8443ZM92.8098 67.6216C87.748 60.7103 83.2694 55.3437 79.396 51.6797L72.524 58.9443C75.7546 62.0003 79.82 66.8097 84.7422 73.5304L92.8098 67.6216ZM79.3987 51.6822C75.4986 47.9873 71.0741 45.128 66.312 45.128V55.128C67.1179 55.128 69.1254 55.7247 72.5213 58.9418L79.3987 51.6822ZM66.312 45.128C64.3576 45.128 62.4529 45.4798 60.6291 46.1813L64.2189 55.5147C64.8911 55.2562 65.5784 55.128 66.312 55.128V45.128ZM60.6291 46.1813C56.145 47.9059 55.552 52.6373 55.552 55.312L65.552 55.312C65.552 54.8888 65.579 54.593 65.6088 54.4027C65.6391 54.2088 65.664 54.1788 65.631 54.2576C65.5953 54.3427 65.4829 54.5749 65.2278 54.8431C64.9588 55.1258 64.6103 55.3642 64.2189 55.5147L60.6291 46.1813ZM55.552 55.312C55.552 58.0397 56.2424 60.8845 58.2923 63.1394L65.6917 56.4126C65.735 56.4603 65.713 56.4645 65.6705 56.333C65.6222 56.183 65.552 55.8651 65.552 55.312L55.552 55.312ZM58.1222 62.9422C59.4567 64.5732 61.1137 65.8707 63.0929 66.6954L66.9391 57.4646C66.6143 57.3293 66.2553 57.0908 65.8618 56.6098L58.1222 62.9422ZM63.0929 66.6954C64.275 67.1879 65.2953 67.5967 66.1404 67.9136L69.6516 58.5503C68.9607 58.2912 68.061 57.9321 66.9391 57.4646L63.0929 66.6954ZM66.2143 67.9407C66.4325 68.0186 66.4475 68.0601 66.3673 67.9926C66.3268 67.9584 66.2725 67.905 66.2162 67.8314C66.1597 67.7573 66.1139 67.6793 66.0802 67.605L75.1838 63.467C74.0197 60.9058 71.883 59.3466 69.5777 58.5233L66.2143 67.9407ZM65.9896 67.393C66.0782 67.6144 66.208 68.1026 66.208 68.992H76.208C76.208 67.1934 75.9538 65.3776 75.2744 63.679L65.9896 67.393ZM66.208 68.992V96.064H76.208V68.992H66.208ZM66.208 96.064C66.208 95.9288 66.2328 95.7393 66.3103 95.5324C66.3873 95.3272 66.4855 95.1867 66.5477 95.114L74.1403 101.622C75.4723 100.068 76.208 98.1531 76.208 96.064H66.208ZM67.09 94.5717C67.1627 94.5094 67.3032 94.4113 67.5084 94.3344C67.7153 94.2568 67.9048 94.232 68.04 94.232V104.232C70.129 104.232 72.0439 103.496 73.598 102.164L67.09 94.5717ZM68.1277 94.2328C63.319 94.1484 59.1871 93.1432 55.6276 91.3238L51.0764 100.228C56.1569 102.825 61.817 104.124 67.9523 104.231L68.1277 94.2328ZM55.6648 91.3431C51.8691 89.3627 48.6132 86.6878 45.8711 83.281L38.0809 89.551C41.6748 94.0162 46.0029 97.5813 51.0392 100.209L55.6648 91.3431ZM45.8711 83.281C43.1348 79.8814 41.016 75.8487 39.553 71.1155L29.999 74.0685C31.8 79.8953 34.4812 85.0786 38.0809 89.551L45.8711 83.281ZM39.528 71.0368C37.9807 66.309 37.184 61.1273 37.184 55.456H27.184C27.184 62.0727 28.1153 68.315 30.024 74.1472L39.528 71.0368ZM37.184 55.456C37.184 47.2004 38.4103 40.2786 40.7096 34.5729L31.4344 30.8351C28.5497 37.9934 27.184 46.2396 27.184 55.456H37.184ZM40.7333 34.5129C42.9415 28.8225 46.0625 24.6537 49.9902 21.7472L44.0418 13.7088C38.3695 17.9063 34.1945 23.7215 31.4107 30.8951L40.7333 34.5129ZM49.9902 21.7472C53.8106 18.9201 58.5369 17.4 64.44 17.4V7.39999C56.7111 7.39999 49.8214 9.43186 44.0418 13.7088L49.9902 21.7472ZM64.44 17.4C68.8595 17.4 72.8948 18.4736 76.6374 20.6235L81.6186 11.9525C76.3372 8.91843 70.5805 7.39999 64.44 7.39999V17.4ZM76.6374 20.6235C80.5873 22.8926 84.4932 26.1579 88.3299 30.5299L95.8461 23.934C91.4268 18.898 86.6927 14.8674 81.6186 11.9525L76.6374 20.6235ZM88.3251 30.5245C92.2075 34.9615 96.2683 40.2303 100.505 46.35L108.727 40.658C104.324 34.2977 100.032 28.7185 95.8509 23.9395L88.3251 30.5245ZM100.547 46.4102L101.267 47.4182L109.405 41.6058L108.685 40.5978L100.547 46.4102ZM110.336 44.512V14.128H100.336V44.512H110.336ZM110.336 14.128C110.336 14.2211 110.316 14.3936 110.232 14.5923C110.15 14.7881 110.052 14.899 110.024 14.9275L102.952 7.85645C101.277 9.53222 100.336 11.7042 100.336 14.128H110.336ZM110.024 14.9275C109.995 14.9561 109.884 15.0537 109.688 15.1362C109.49 15.2198 109.317 15.24 109.224 15.24V5.24C106.8 5.24 104.628 6.1807 102.952 7.85647L110.024 14.9275ZM109.224 15.24L131.112 15.24V5.24L109.224 5.24V15.24ZM131.112 15.24C131.019 15.24 130.846 15.2198 130.648 15.1362C130.452 15.0537 130.341 14.9561 130.312 14.9275L137.384 7.85647C135.708 6.18071 133.536 5.24 131.112 5.24V15.24ZM130.312 14.9275C130.284 14.899 130.186 14.7881 130.104 14.5923C130.02 14.3936 130 14.2211 130 14.128H140C140 11.7042 139.059 9.53222 137.384 7.85645L130.312 14.9275ZM130 14.128V97.072L140 97.072V14.128H130Z" fill="#33FFC0"/>
</g>
<path opacity="0.8" d="M112.824 100.528L113.693 95.6041L113.669 95.5999L113.646 95.596L112.824 100.528ZM108.36 97.36L112.487 94.5366L112.446 94.4773L112.404 94.4191L108.36 97.36ZM107.208 95.776L103.158 98.7077L103.164 98.7169L107.208 95.776ZM88.776 70.576L84.7422 73.5304L84.7522 73.544L84.7623 73.5576L88.776 70.576ZM75.96 55.312L72.5213 58.9418L72.524 58.9443L75.96 55.312ZM62.424 50.848L64.2189 55.5147V55.5147L62.424 50.848ZM61.992 59.776L65.8618 56.6098L65.7793 56.509L65.6917 56.4126L61.992 59.776ZM67.896 63.232L66.1404 67.9136L66.1772 67.9275L66.2143 67.9407L67.896 63.232ZM70.632 65.536L75.2744 63.679L75.2316 63.572L75.1838 63.467L70.632 65.536ZM70.344 98.368L73.598 102.164L73.89 101.914L74.1403 101.622L70.344 98.368ZM68.04 99.232L67.9523 104.231L67.9961 104.232H68.04V99.232ZM53.352 95.776L51.0392 100.209L51.0578 100.219L51.0764 100.228L53.352 95.776ZM41.976 86.416L45.8711 83.281L41.976 86.416ZM34.776 72.592L39.553 71.1155L39.5408 71.076L39.528 71.0368L34.776 72.592ZM36.072 32.704L40.7096 34.5729L40.7216 34.543L40.7333 34.5129L36.072 32.704ZM47.016 17.728L49.9902 21.7472V21.7472L47.016 17.728ZM79.128 16.288L81.6186 11.9525L79.128 16.288ZM92.088 27.232L95.8509 23.9395L95.8461 23.934L92.088 27.232ZM104.616 43.504L100.505 46.35L100.526 46.3803L100.547 46.4102L104.616 43.504ZM105.336 44.512L101.267 47.4182L110.336 60.1143V44.512H105.336ZM106.488 11.392L110.024 14.9275L110.024 14.9275L106.488 11.392ZM133.848 11.392L130.312 14.9275V14.9275L133.848 11.392ZM130 97.072C130 96.9789 130.02 96.8064 130.104 96.6077C130.186 96.4119 130.284 96.301 130.312 96.2725L137.384 103.344C139.059 101.668 140 99.4958 140 97.072L130 97.072ZM130.312 96.2725C130.341 96.2439 130.452 96.1463 130.648 96.0638C130.846 95.9802 131.019 95.96 131.112 95.96V105.96C133.536 105.96 135.708 105.019 137.384 103.344L130.312 96.2725ZM131.112 95.96L116.136 95.96V105.96H131.112V95.96ZM116.136 95.96C116.18 95.96 116.019 95.9587 115.523 95.894C115.071 95.8351 114.467 95.7407 113.693 95.6041L111.955 105.452C113.527 105.729 115.054 105.96 116.136 105.96V95.96ZM113.646 95.596C113.592 95.587 113.179 95.5487 112.487 94.5366L104.233 100.183C106.037 102.819 108.6 104.893 112.002 105.46L113.646 95.596ZM112.404 94.4191L111.252 92.8351L103.164 98.7169L104.316 100.301L112.404 94.4191ZM111.258 92.8443C103.955 82.7548 97.7984 74.3368 92.7897 67.5944L84.7623 73.5576C89.7376 80.2552 95.8686 88.6372 103.158 98.7077L111.258 92.8443ZM92.8098 67.6216C87.748 60.7103 83.2694 55.3437 79.396 51.6797L72.524 58.9443C75.7546 62.0003 79.82 66.8097 84.7422 73.5304L92.8098 67.6216ZM79.3987 51.6822C75.4986 47.9873 71.0741 45.128 66.312 45.128V55.128C67.1179 55.128 69.1254 55.7247 72.5213 58.9418L79.3987 51.6822ZM66.312 45.128C64.3576 45.128 62.4529 45.4798 60.6291 46.1813L64.2189 55.5147C64.8911 55.2562 65.5784 55.128 66.312 55.128V45.128ZM60.6291 46.1813C56.145 47.9059 55.552 52.6373 55.552 55.312L65.552 55.312C65.552 54.8888 65.579 54.593 65.6088 54.4027C65.6391 54.2088 65.664 54.1788 65.631 54.2576C65.5953 54.3427 65.4829 54.5749 65.2278 54.8431C64.9588 55.1258 64.6103 55.3642 64.2189 55.5147L60.6291 46.1813ZM55.552 55.312C55.552 58.0397 56.2424 60.8845 58.2923 63.1394L65.6917 56.4126C65.735 56.4603 65.713 56.4645 65.6705 56.333C65.6222 56.183 65.552 55.8651 65.552 55.312L55.552 55.312ZM58.1222 62.9422C59.4567 64.5732 61.1137 65.8707 63.0929 66.6954L66.9391 57.4646C66.6143 57.3293 66.2553 57.0908 65.8618 56.6098L58.1222 62.9422ZM63.0929 66.6954C64.275 67.1879 65.2953 67.5967 66.1404 67.9136L69.6516 58.5503C68.9607 58.2912 68.061 57.9321 66.9391 57.4646L63.0929 66.6954ZM66.2143 67.9407C66.4325 68.0186 66.4475 68.0601 66.3673 67.9926C66.3268 67.9584 66.2725 67.905 66.2162 67.8314C66.1597 67.7573 66.1139 67.6793 66.0802 67.605L75.1838 63.467C74.0197 60.9058 71.883 59.3466 69.5777 58.5233L66.2143 67.9407ZM65.9896 67.393C66.0782 67.6144 66.208 68.1026 66.208 68.992H76.208C76.208 67.1934 75.9538 65.3776 75.2744 63.679L65.9896 67.393ZM66.208 68.992V96.064H76.208V68.992H66.208ZM66.208 96.064C66.208 95.9288 66.2328 95.7393 66.3103 95.5324C66.3873 95.3272 66.4855 95.1867 66.5477 95.114L74.1403 101.622C75.4723 100.068 76.208 98.1531 76.208 96.064H66.208ZM67.09 94.5717C67.1627 94.5094 67.3032 94.4113 67.5084 94.3344C67.7153 94.2568 67.9048 94.232 68.04 94.232V104.232C70.129 104.232 72.0439 103.496 73.598 102.164L67.09 94.5717ZM68.1277 94.2328C63.319 94.1484 59.1871 93.1432 55.6276 91.3238L51.0764 100.228C56.1569 102.825 61.817 104.124 67.9523 104.231L68.1277 94.2328ZM55.6648 91.3431C51.8691 89.3627 48.6132 86.6878 45.8711 83.281L38.0809 89.551C41.6748 94.0162 46.0029 97.5813 51.0392 100.209L55.6648 91.3431ZM45.8711 83.281C43.1348 79.8814 41.016 75.8487 39.553 71.1155L29.999 74.0685C31.8 79.8953 34.4812 85.0786 38.0809 89.551L45.8711 83.281ZM39.528 71.0368C37.9807 66.309 37.184 61.1273 37.184 55.456H27.184C27.184 62.0727 28.1153 68.315 30.024 74.1472L39.528 71.0368ZM37.184 55.456C37.184 47.2004 38.4103 40.2786 40.7096 34.5729L31.4344 30.8351C28.5497 37.9934 27.184 46.2396 27.184 55.456H37.184ZM40.7333 34.5129C42.9415 28.8225 46.0625 24.6537 49.9902 21.7472L44.0418 13.7088C38.3695 17.9063 34.1945 23.7215 31.4107 30.8951L40.7333 34.5129ZM49.9902 21.7472C53.8106 18.9201 58.5369 17.4 64.44 17.4V7.39999C56.7111 7.39999 49.8214 9.43186 44.0418 13.7088L49.9902 21.7472ZM64.44 17.4C68.8595 17.4 72.8948 18.4736 76.6374 20.6235L81.6186 11.9525C76.3372 8.91843 70.5805 7.39999 64.44 7.39999V17.4ZM76.6374 20.6235C80.5873 22.8926 84.4932 26.1579 88.3299 30.5299L95.8461 23.934C91.4268 18.898 86.6927 14.8674 81.6186 11.9525L76.6374 20.6235ZM88.3251 30.5245C92.2075 34.9615 96.2683 40.2303 100.505 46.35L108.727 40.658C104.324 34.2977 100.032 28.7185 95.8509 23.9395L88.3251 30.5245ZM100.547 46.4102L101.267 47.4182L109.405 41.6058L108.685 40.5978L100.547 46.4102ZM110.336 44.512V14.128H100.336V44.512H110.336ZM110.336 14.128C110.336 14.2211 110.316 14.3936 110.232 14.5923C110.15 14.7881 110.052 14.899 110.024 14.9275L102.952 7.85645C101.277 9.53222 100.336 11.7042 100.336 14.128H110.336ZM110.024 14.9275C109.995 14.9561 109.884 15.0537 109.688 15.1362C109.49 15.2198 109.317 15.24 109.224 15.24V5.24C106.8 5.24 104.628 6.1807 102.952 7.85647L110.024 14.9275ZM109.224 15.24L131.112 15.24V5.24L109.224 5.24V15.24ZM131.112 15.24C131.019 15.24 130.846 15.2198 130.648 15.1362C130.452 15.0537 130.341 14.9561 130.312 14.9275L137.384 7.85647C135.708 6.18071 133.536 5.24 131.112 5.24V15.24ZM130.312 14.9275C130.284 14.899 130.186 14.7881 130.104 14.5923C130.02 14.3936 130 14.2211 130 14.128H140C140 11.7042 139.059 9.53222 137.384 7.85645L130.312 14.9275ZM130 14.128V97.072L140 97.072V14.128H130Z" fill="#296FF9"/>
<g filter="url(#filter1_f_56_77)">
<path d="M135 397.192C135 398.248 134.616 399.16 133.848 399.928C133.08 400.696 132.168 401.08 131.112 401.08H38.088C37.032 401.08 36.12 400.696 35.352 399.928C34.584 399.16 34.2 398.248 34.2 397.192V355.72C34.2 346.696 35.736 338.632 38.808 331.528C41.784 324.424 46.2 318.76 52.056 314.536C57.912 310.216 65.16 307.912 73.8 307.624C77.928 307.432 81.576 307.336 84.744 307.336C87.816 307.336 91.32 307.432 95.256 307.624C104.28 308.008 111.768 310.216 117.72 314.248C123.576 318.28 127.944 323.8 130.824 330.808C133.608 337.72 135 345.784 135 355V397.192ZM106.92 365.08V355.72C106.92 353.608 106.536 351.736 105.768 350.104C104.904 348.376 103.608 346.984 101.88 345.928C100.152 344.872 97.944 344.296 95.256 344.2C92.472 344.008 89.976 343.912 87.768 343.912C85.56 343.816 83.352 343.816 81.144 343.912C78.84 343.912 76.392 344.008 73.8 344.2C69.768 344.392 66.84 345.688 65.016 348.088C63.192 350.392 62.28 353.176 62.28 356.44V365.08H106.92ZM135 301.769C135 302.633 134.712 303.401 134.136 304.073C133.464 304.649 132.696 304.938 131.832 304.938C131.448 304.938 131.112 304.889 130.824 304.793L38.952 272.681C37.896 272.393 36.84 271.721 35.784 270.665C34.728 269.609 34.2 268.121 34.2 266.201V234.953C34.2 233.033 34.728 231.545 35.784 230.489C36.84 229.433 37.896 228.761 38.952 228.473L130.824 196.361C131.112 196.265 131.448 196.217 131.832 196.217C132.696 196.217 133.464 196.553 134.136 197.225C134.712 197.801 135 198.521 135 199.385V226.025C135 227.849 134.616 229.193 133.848 230.057C132.984 230.825 132.168 231.353 131.4 231.641L121.896 235.097V266.057L131.4 269.513C132.168 269.801 132.984 270.329 133.848 271.097C134.616 271.865 135 273.209 135 275.129V301.769ZM93.816 258.713V242.441L67.032 250.649L93.816 258.713ZM135 171.883C135 172.939 134.616 173.851 133.848 174.619C133.08 175.387 132.168 175.771 131.112 175.771H102.744L38.664 208.171C38.472 208.267 38.28 208.363 38.088 208.459C37.8 208.459 37.56 208.459 37.368 208.459C36.504 208.459 35.784 208.171 35.208 207.595C34.536 206.923 34.2 206.155 34.2 205.291V178.219C34.2 176.299 34.68 174.859 35.64 173.899C36.6 172.939 37.32 172.363 37.8 172.171L66.744 157.771L37.8 143.371C37.32 143.179 36.6 142.603 35.64 141.643C34.68 140.683 34.2 139.243 34.2 137.323L34.2 110.251C34.2 109.387 34.536 108.667 35.208 108.091C35.784 107.419 36.504 107.083 37.368 107.083C37.56 107.083 37.8 107.131 38.088 107.227C38.28 107.227 38.472 107.275 38.664 107.371L102.744 139.771H131.112C132.168 139.771 133.08 140.155 133.848 140.923C134.616 141.691 135 142.603 135 143.659V171.883Z" fill="#33FFC0"/>
</g>
<path d="M135 397.192C135 398.248 134.616 399.16 133.848 399.928C133.08 400.696 132.168 401.08 131.112 401.08H38.088C37.032 401.08 36.12 400.696 35.352 399.928C34.584 399.16 34.2 398.248 34.2 397.192V355.72C34.2 346.696 35.736 338.632 38.808 331.528C41.784 324.424 46.2 318.76 52.056 314.536C57.912 310.216 65.16 307.912 73.8 307.624C77.928 307.432 81.576 307.336 84.744 307.336C87.816 307.336 91.32 307.432 95.256 307.624C104.28 308.008 111.768 310.216 117.72 314.248C123.576 318.28 127.944 323.8 130.824 330.808C133.608 337.72 135 345.784 135 355V397.192ZM106.92 365.08V355.72C106.92 353.608 106.536 351.736 105.768 350.104C104.904 348.376 103.608 346.984 101.88 345.928C100.152 344.872 97.944 344.296 95.256 344.2C92.472 344.008 89.976 343.912 87.768 343.912C85.56 343.816 83.352 343.816 81.144 343.912C78.84 343.912 76.392 344.008 73.8 344.2C69.768 344.392 66.84 345.688 65.016 348.088C63.192 350.392 62.28 353.176 62.28 356.44V365.08H106.92ZM135 301.769C135 302.633 134.712 303.401 134.136 304.073C133.464 304.649 132.696 304.938 131.832 304.938C131.448 304.938 131.112 304.889 130.824 304.793L38.952 272.681C37.896 272.393 36.84 271.721 35.784 270.665C34.728 269.609 34.2 268.121 34.2 266.201V234.953C34.2 233.033 34.728 231.545 35.784 230.489C36.84 229.433 37.896 228.761 38.952 228.473L130.824 196.361C131.112 196.265 131.448 196.217 131.832 196.217C132.696 196.217 133.464 196.553 134.136 197.225C134.712 197.801 135 198.521 135 199.385V226.025C135 227.849 134.616 229.193 133.848 230.057C132.984 230.825 132.168 231.353 131.4 231.641L121.896 235.097V266.057L131.4 269.513C132.168 269.801 132.984 270.329 133.848 271.097C134.616 271.865 135 273.209 135 275.129V301.769ZM93.816 258.713V242.441L67.032 250.649L93.816 258.713ZM135 171.883C135 172.939 134.616 173.851 133.848 174.619C133.08 175.387 132.168 175.771 131.112 175.771H102.744L38.664 208.171C38.472 208.267 38.28 208.363 38.088 208.459C37.8 208.459 37.56 208.459 37.368 208.459C36.504 208.459 35.784 208.171 35.208 207.595C34.536 206.923 34.2 206.155 34.2 205.291V178.219C34.2 176.299 34.68 174.859 35.64 173.899C36.6 172.939 37.32 172.363 37.8 172.171L66.744 157.771L37.8 143.371C37.32 143.179 36.6 142.603 35.64 141.643C34.68 140.683 34.2 139.243 34.2 137.323L34.2 110.251C34.2 109.387 34.536 108.667 35.208 108.091C35.784 107.419 36.504 107.083 37.368 107.083C37.56 107.083 37.8 107.131 38.088 107.227C38.28 107.227 38.472 107.275 38.664 107.371L102.744 139.771H131.112C132.168 139.771 133.08 140.155 133.848 140.923C134.616 141.691 135 142.603 135 143.659V171.883Z" fill="#296FF9"/>
<defs>
<filter id="filter0_f_56_77" x="22.1841" y="0.23999" width="122.816" height="110.72" filterUnits="userSpaceOnUse" color-interpolation-filters="sRGB">
<feFlood flood-opacity="0" result="BackgroundImageFix"/>
<feBlend mode="normal" in="SourceGraphic" in2="BackgroundImageFix" result="shape"/>
<feGaussianBlur stdDeviation="5" result="effect1_foregroundBlur_56_77"/>
</filter>
<filter id="filter1_f_56_77" x="24.2" y="97.0826" width="120.8" height="313.997" filterUnits="userSpaceOnUse" color-interpolation-filters="sRGB">
<feFlood flood-opacity="0" result="BackgroundImageFix"/>
<feBlend mode="normal" in="SourceGraphic" in2="BackgroundImageFix" result="shape"/>
<feGaussianBlur stdDeviation="5" result="effect1_foregroundBlur_56_77"/>
</filter>
</defs>
</svg>
