<svg width="171" height="414" viewBox="0 0 171 414" fill="none" xmlns="http://www.w3.org/2000/svg">
<g opacity="0.8" filter="url(#filter0_f_56_2)">
<path d="M133.416 79.776L128.68 78.172L133.416 79.776ZM125.784 94.176L129.515 97.5041L129.563 97.451L129.609 97.3967L125.784 94.176ZM115.992 102.096L118.127 106.617L118.204 106.581L118.279 106.542L115.992 102.096ZM106.488 104.688V109.688H106.571L106.655 109.685L106.488 104.688ZM104.328 103.824L107.864 100.288L104.328 103.824ZM104.04 69.696L107.881 72.8969L108.163 72.5588L108.381 72.1767L104.04 69.696ZM105.624 67.68L109.16 71.2155L109.32 71.0552L109.465 70.8809L105.624 67.68ZM107.064 65.664L111.304 68.314L111.304 68.314L107.064 65.664ZM108.216 62.64L113.088 63.7643L113.13 63.5836L113.158 63.4003L108.216 62.64ZM106.344 50.544L109.88 47.0085L106.344 50.544ZM96.12 50.688L100.24 53.5206L100.34 53.3752L100.43 53.2231L96.12 50.688ZM93.384 78.48L96.9195 82.0155V82.0155L93.384 78.48ZM75.384 78.768L72.6996 82.9863L72.7551 83.0216L72.8115 83.0555L75.384 78.768ZM73.224 76.752L68.8369 79.1507L68.8595 79.1919L68.8828 79.2327L73.224 76.752ZM62.28 56.736L66.6671 54.3373L57.28 56.736L62.28 56.736ZM35.352 18.144L38.8875 21.6795L38.8875 21.6795L35.352 18.144ZM59.976 17.856L62.5485 13.5685L62.4604 13.5157L62.3703 13.4665L59.976 17.856ZM62.136 19.872L57.896 22.522L57.935 22.5843L57.9757 22.6455L62.136 19.872ZM73.368 36.72L69.2077 39.4935L70.6921 41.72H73.368V36.72ZM73.8 36.72V41.72H77.742L78.6619 37.8869L73.8 36.72ZM78.984 23.616L74.6689 21.0901V21.0901L78.984 23.616ZM88.488 14.256L90.9687 18.5972L90.9914 18.5843L91.0139 18.5711L88.488 14.256ZM120.888 16.992L117.702 20.8452L117.709 20.8516L120.888 16.992ZM132.408 33.696L137.076 31.9054L137.07 31.8885L137.063 31.8716L132.408 33.696ZM131.44 57.888C131.44 66.172 130.469 72.8899 128.68 78.172L138.152 81.38C140.395 74.7581 141.44 66.884 141.44 57.888H131.44ZM128.68 78.172C126.804 83.7106 124.524 87.9097 121.959 90.9553L129.609 97.3967C133.188 93.1463 135.996 87.7454 138.152 81.38L128.68 78.172ZM122.053 90.8479C119.191 94.0558 116.398 96.2649 113.705 97.6496L118.279 106.542C122.306 104.471 126.041 101.4 129.515 97.5041L122.053 90.8479ZM113.857 97.5748C110.827 99.0057 108.336 99.6236 106.321 99.6908L106.655 109.685C110.4 109.56 114.245 108.45 118.127 106.617L113.857 97.5748ZM106.488 99.688C106.62 99.688 106.863 99.7119 107.157 99.8296C107.457 99.9497 107.697 100.122 107.864 100.288L100.792 107.36C102.367 108.935 104.387 109.688 106.488 109.688V99.688ZM107.864 100.288C107.91 100.335 108.04 100.482 108.153 100.74C108.27 101.007 108.32 101.284 108.32 101.52H98.32C98.32 103.849 99.2857 105.853 100.792 107.36L107.864 100.288ZM108.32 101.52V72.576H98.32V101.52H108.32ZM108.32 72.576C108.32 72.3863 108.329 72.2493 108.338 72.158C108.348 72.0658 108.356 72.0377 108.351 72.0607C108.344 72.0875 108.251 72.4525 107.881 72.8969L100.199 66.4951C98.5718 68.4476 98.32 70.8896 98.32 72.576H108.32ZM108.381 72.1767C108.501 71.9664 108.733 71.6418 109.16 71.2155L102.088 64.1445C101.171 65.0622 100.347 66.0816 99.6988 67.2153L108.381 72.1767ZM109.465 70.8809C110.117 70.0991 110.727 69.2364 111.304 68.314L102.824 63.014C102.441 63.6276 102.091 64.1089 101.783 64.4791L109.465 70.8809ZM111.304 68.314C112.172 66.9255 112.723 65.347 113.088 63.7643L103.344 61.5157C103.133 62.429 102.916 62.8665 102.824 63.014L111.304 68.314ZM113.158 63.4003C113.404 61.7979 113.504 59.8836 113.504 57.744H103.504C103.504 59.6364 103.412 60.9861 103.274 61.8797L113.158 63.4003ZM113.504 57.744C113.504 53.8764 112.71 49.8388 109.88 47.0085L102.808 54.0795C102.858 54.1292 103.504 54.8916 103.504 57.744H113.504ZM109.88 47.0085C107.436 44.5647 104.352 43.24 100.872 43.24V53.24C101.616 53.24 102.18 53.4513 102.808 54.0795L109.88 47.0085ZM100.872 43.24C97.2417 43.24 93.8328 44.7147 91.8103 48.1529L100.43 53.2231C100.455 53.1794 100.457 53.1879 100.424 53.2199C100.389 53.2533 100.349 53.2809 100.318 53.2969C100.252 53.3307 100.378 53.24 100.872 53.24V43.24ZM91.9998 47.8554C90.0945 50.6267 89.536 54.197 89.536 57.744H99.536C99.536 54.955 100.033 53.8213 100.24 53.5206L91.9998 47.8554ZM89.536 57.744V75.744H99.536V57.744H89.536ZM89.536 75.744C89.536 75.6509 89.5562 75.4784 89.6398 75.2797C89.7223 75.0839 89.8199 74.973 89.8485 74.9445L96.9195 82.0155C98.5953 80.3398 99.536 78.1678 99.536 75.744H89.536ZM89.8485 74.9445C89.877 74.9159 89.9879 74.8183 90.1837 74.7358C90.3824 74.6522 90.5549 74.632 90.648 74.632V84.632C93.0718 84.632 95.2438 83.6913 96.9195 82.0155L89.8485 74.9445ZM90.648 74.632H78.984V84.632H90.648V74.632ZM78.984 74.632C78.5935 74.632 78.3315 74.5926 78.1709 74.5541C78.0157 74.5168 77.9577 74.4813 77.9565 74.4805L72.8115 83.0555C74.7413 84.2133 76.8925 84.632 78.984 84.632V74.632ZM78.0684 74.5497C77.7336 74.3367 77.5483 74.1838 77.4636 74.1047C77.3758 74.0228 77.451 74.0714 77.5652 74.2713L68.8828 79.2327C69.8448 80.9162 71.3355 82.1182 72.6996 82.9863L78.0684 74.5497ZM77.6111 74.3533L66.6671 54.3373L57.8929 59.1347L68.8369 79.1507L77.6111 74.3533ZM57.28 56.736V94.608H67.28V56.736L57.28 56.736ZM57.28 94.608C57.28 94.5149 57.3002 94.3424 57.3838 94.1437C57.4663 93.9479 57.5639 93.837 57.5925 93.8085L64.6635 100.88C66.3393 99.2038 67.28 97.0318 67.28 94.608H57.28ZM57.5925 93.8085C57.621 93.7799 57.7319 93.6823 57.9277 93.5998C58.1264 93.5162 58.2989 93.496 58.392 93.496V103.496C60.8158 103.496 62.9878 102.555 64.6635 100.88L57.5925 93.8085ZM58.392 93.496H38.088V103.496H58.392V93.496ZM38.088 93.496C38.1811 93.496 38.3536 93.5162 38.5523 93.5998C38.7481 93.6823 38.859 93.7799 38.8875 93.8085L31.8165 100.88C33.4922 102.555 35.6642 103.496 38.088 103.496V93.496ZM38.8875 93.8085C38.9161 93.837 39.0137 93.9479 39.0962 94.1437C39.1798 94.3424 39.2 94.5149 39.2 94.608H29.2C29.2 97.0318 30.1407 99.2038 31.8165 100.88L38.8875 93.8085ZM39.2 94.608L39.2 20.88H29.2L29.2 94.608H39.2ZM39.2 20.88C39.2 20.9731 39.1798 21.1456 39.0962 21.3443C39.0137 21.5401 38.9161 21.651 38.8875 21.6795L31.8165 14.6085C30.1407 16.2842 29.2 18.4562 29.2 20.88H39.2ZM38.8875 21.6795C38.859 21.7081 38.7481 21.8057 38.5523 21.8882C38.3536 21.9718 38.1811 21.992 38.088 21.992V11.992C35.6642 11.992 33.4922 12.9327 31.8165 14.6085L38.8875 21.6795ZM38.088 21.992H56.376V11.992H38.088V21.992ZM56.376 21.992C56.9833 21.992 57.3432 22.1153 57.5817 22.2455L62.3703 13.4665C60.4968 12.4447 58.4567 11.992 56.376 11.992V21.992ZM57.4035 22.1434C57.8432 22.4073 57.922 22.5636 57.896 22.522L66.376 17.222C65.39 15.6444 64.0288 14.4567 62.5485 13.5685L57.4035 22.1434ZM57.9757 22.6455L69.2077 39.4935L77.5282 33.9465L66.2962 17.0985L57.9757 22.6455ZM73.368 41.72H73.8V31.72H73.368V41.72ZM78.6619 37.8869C79.7087 33.5251 81.2626 29.6208 83.2991 26.1419L74.6689 21.0901C72.0974 25.4832 70.1952 30.3149 68.9381 35.5531L78.6619 37.8869ZM83.2991 26.1419C85.1526 22.9754 87.682 20.4753 90.9687 18.5972L86.0073 9.91478C81.23 12.6446 77.4234 16.3846 74.6689 21.0901L83.2991 26.1419ZM91.0139 18.5711C93.9731 16.8389 98.0231 15.8 103.464 15.8V5.8C96.8089 5.8 90.8749 7.06514 85.9621 9.94093L91.0139 18.5711ZM103.464 15.8C108.953 15.8 113.628 17.4765 117.702 20.8452L124.074 13.1388C118.164 8.25148 111.223 5.8 103.464 5.8V15.8ZM117.709 20.8516C121.826 24.2421 125.217 29.049 127.753 35.5204L137.063 31.8716C134.031 24.135 129.742 17.8059 124.067 13.1323L117.709 20.8516ZM127.74 35.4866C130.167 41.8148 131.44 49.2523 131.44 57.888H141.44C141.44 48.2837 140.025 39.5932 137.076 31.9054L127.74 35.4866Z" fill="#33FFC0"/>
</g>
<path opacity="0.8" d="M133.416 79.776L128.68 78.172L133.416 79.776ZM125.784 94.176L129.515 97.5041L129.563 97.451L129.609 97.3967L125.784 94.176ZM115.992 102.096L118.127 106.617L118.204 106.581L118.279 106.542L115.992 102.096ZM106.488 104.688V109.688H106.571L106.655 109.685L106.488 104.688ZM104.328 103.824L107.864 100.288L104.328 103.824ZM104.04 69.696L107.881 72.8969L108.163 72.5588L108.381 72.1767L104.04 69.696ZM105.624 67.68L109.16 71.2155L109.32 71.0552L109.465 70.8809L105.624 67.68ZM107.064 65.664L111.304 68.314L111.304 68.314L107.064 65.664ZM108.216 62.64L113.088 63.7643L113.13 63.5836L113.158 63.4003L108.216 62.64ZM106.344 50.544L109.88 47.0085L106.344 50.544ZM96.12 50.688L100.24 53.5206L100.34 53.3752L100.43 53.2231L96.12 50.688ZM93.384 78.48L96.9195 82.0155V82.0155L93.384 78.48ZM75.384 78.768L72.6996 82.9863L72.7551 83.0216L72.8115 83.0555L75.384 78.768ZM73.224 76.752L68.8369 79.1507L68.8595 79.1919L68.8828 79.2327L73.224 76.752ZM62.28 56.736L66.6671 54.3373L57.28 56.736L62.28 56.736ZM35.352 18.144L38.8875 21.6795L38.8875 21.6795L35.352 18.144ZM59.976 17.856L62.5485 13.5685L62.4604 13.5157L62.3703 13.4665L59.976 17.856ZM62.136 19.872L57.896 22.522L57.935 22.5843L57.9757 22.6455L62.136 19.872ZM73.368 36.72L69.2077 39.4935L70.6921 41.72H73.368V36.72ZM73.8 36.72V41.72H77.742L78.6619 37.8869L73.8 36.72ZM78.984 23.616L74.6689 21.0901V21.0901L78.984 23.616ZM88.488 14.256L90.9687 18.5972L90.9914 18.5843L91.0139 18.5711L88.488 14.256ZM120.888 16.992L117.702 20.8452L117.709 20.8516L120.888 16.992ZM132.408 33.696L137.076 31.9054L137.07 31.8885L137.063 31.8716L132.408 33.696ZM131.44 57.888C131.44 66.172 130.469 72.8899 128.68 78.172L138.152 81.38C140.395 74.7581 141.44 66.884 141.44 57.888H131.44ZM128.68 78.172C126.804 83.7106 124.524 87.9097 121.959 90.9553L129.609 97.3967C133.188 93.1463 135.996 87.7454 138.152 81.38L128.68 78.172ZM122.053 90.8479C119.191 94.0558 116.398 96.2649 113.705 97.6496L118.279 106.542C122.306 104.471 126.041 101.4 129.515 97.5041L122.053 90.8479ZM113.857 97.5748C110.827 99.0057 108.336 99.6236 106.321 99.6908L106.655 109.685C110.4 109.56 114.245 108.45 118.127 106.617L113.857 97.5748ZM106.488 99.688C106.62 99.688 106.863 99.7119 107.157 99.8296C107.457 99.9497 107.697 100.122 107.864 100.288L100.792 107.36C102.367 108.935 104.387 109.688 106.488 109.688V99.688ZM107.864 100.288C107.91 100.335 108.04 100.482 108.153 100.74C108.27 101.007 108.32 101.284 108.32 101.52H98.32C98.32 103.849 99.2857 105.853 100.792 107.36L107.864 100.288ZM108.32 101.52V72.576H98.32V101.52H108.32ZM108.32 72.576C108.32 72.3863 108.329 72.2493 108.338 72.158C108.348 72.0658 108.356 72.0377 108.351 72.0607C108.344 72.0875 108.251 72.4525 107.881 72.8969L100.199 66.4951C98.5718 68.4476 98.32 70.8896 98.32 72.576H108.32ZM108.381 72.1767C108.501 71.9664 108.733 71.6418 109.16 71.2155L102.088 64.1445C101.171 65.0622 100.347 66.0816 99.6988 67.2153L108.381 72.1767ZM109.465 70.8809C110.117 70.0991 110.727 69.2364 111.304 68.314L102.824 63.014C102.441 63.6276 102.091 64.1089 101.783 64.4791L109.465 70.8809ZM111.304 68.314C112.172 66.9255 112.723 65.347 113.088 63.7643L103.344 61.5157C103.133 62.429 102.916 62.8665 102.824 63.014L111.304 68.314ZM113.158 63.4003C113.404 61.7979 113.504 59.8836 113.504 57.744H103.504C103.504 59.6364 103.412 60.9861 103.274 61.8797L113.158 63.4003ZM113.504 57.744C113.504 53.8764 112.71 49.8388 109.88 47.0085L102.808 54.0795C102.858 54.1292 103.504 54.8916 103.504 57.744H113.504ZM109.88 47.0085C107.436 44.5647 104.352 43.24 100.872 43.24V53.24C101.616 53.24 102.18 53.4513 102.808 54.0795L109.88 47.0085ZM100.872 43.24C97.2417 43.24 93.8328 44.7147 91.8103 48.1529L100.43 53.2231C100.455 53.1794 100.457 53.1879 100.424 53.2199C100.389 53.2533 100.349 53.2809 100.318 53.2969C100.252 53.3307 100.378 53.24 100.872 53.24V43.24ZM91.9998 47.8554C90.0945 50.6267 89.536 54.197 89.536 57.744H99.536C99.536 54.955 100.033 53.8213 100.24 53.5206L91.9998 47.8554ZM89.536 57.744V75.744H99.536V57.744H89.536ZM89.536 75.744C89.536 75.6509 89.5562 75.4784 89.6398 75.2797C89.7223 75.0839 89.8199 74.973 89.8485 74.9445L96.9195 82.0155C98.5953 80.3398 99.536 78.1678 99.536 75.744H89.536ZM89.8485 74.9445C89.877 74.9159 89.9879 74.8183 90.1837 74.7358C90.3824 74.6522 90.5549 74.632 90.648 74.632V84.632C93.0718 84.632 95.2438 83.6913 96.9195 82.0155L89.8485 74.9445ZM90.648 74.632H78.984V84.632H90.648V74.632ZM78.984 74.632C78.5935 74.632 78.3315 74.5926 78.1709 74.5541C78.0157 74.5168 77.9577 74.4813 77.9565 74.4805L72.8115 83.0555C74.7413 84.2133 76.8925 84.632 78.984 84.632V74.632ZM78.0684 74.5497C77.7336 74.3367 77.5483 74.1838 77.4636 74.1047C77.3758 74.0228 77.451 74.0714 77.5652 74.2713L68.8828 79.2327C69.8448 80.9162 71.3355 82.1182 72.6996 82.9863L78.0684 74.5497ZM77.6111 74.3533L66.6671 54.3373L57.8929 59.1347L68.8369 79.1507L77.6111 74.3533ZM57.28 56.736V94.608H67.28V56.736L57.28 56.736ZM57.28 94.608C57.28 94.5149 57.3002 94.3424 57.3838 94.1437C57.4663 93.9479 57.5639 93.837 57.5925 93.8085L64.6635 100.88C66.3393 99.2038 67.28 97.0318 67.28 94.608H57.28ZM57.5925 93.8085C57.621 93.7799 57.7319 93.6823 57.9277 93.5998C58.1264 93.5162 58.2989 93.496 58.392 93.496V103.496C60.8158 103.496 62.9878 102.555 64.6635 100.88L57.5925 93.8085ZM58.392 93.496H38.088V103.496H58.392V93.496ZM38.088 93.496C38.1811 93.496 38.3536 93.5162 38.5523 93.5998C38.7481 93.6823 38.859 93.7799 38.8875 93.8085L31.8165 100.88C33.4922 102.555 35.6642 103.496 38.088 103.496V93.496ZM38.8875 93.8085C38.9161 93.837 39.0137 93.9479 39.0962 94.1437C39.1798 94.3424 39.2 94.5149 39.2 94.608H29.2C29.2 97.0318 30.1407 99.2038 31.8165 100.88L38.8875 93.8085ZM39.2 94.608L39.2 20.88H29.2L29.2 94.608H39.2ZM39.2 20.88C39.2 20.9731 39.1798 21.1456 39.0962 21.3443C39.0137 21.5401 38.9161 21.651 38.8875 21.6795L31.8165 14.6085C30.1407 16.2842 29.2 18.4562 29.2 20.88H39.2ZM38.8875 21.6795C38.859 21.7081 38.7481 21.8057 38.5523 21.8882C38.3536 21.9718 38.1811 21.992 38.088 21.992V11.992C35.6642 11.992 33.4922 12.9327 31.8165 14.6085L38.8875 21.6795ZM38.088 21.992H56.376V11.992H38.088V21.992ZM56.376 21.992C56.9833 21.992 57.3432 22.1153 57.5817 22.2455L62.3703 13.4665C60.4968 12.4447 58.4567 11.992 56.376 11.992V21.992ZM57.4035 22.1434C57.8432 22.4073 57.922 22.5636 57.896 22.522L66.376 17.222C65.39 15.6444 64.0288 14.4567 62.5485 13.5685L57.4035 22.1434ZM57.9757 22.6455L69.2077 39.4935L77.5282 33.9465L66.2962 17.0985L57.9757 22.6455ZM73.368 41.72H73.8V31.72H73.368V41.72ZM78.6619 37.8869C79.7087 33.5251 81.2626 29.6208 83.2991 26.1419L74.6689 21.0901C72.0974 25.4832 70.1952 30.3149 68.9381 35.5531L78.6619 37.8869ZM83.2991 26.1419C85.1526 22.9754 87.682 20.4753 90.9687 18.5972L86.0073 9.91478C81.23 12.6446 77.4234 16.3846 74.6689 21.0901L83.2991 26.1419ZM91.0139 18.5711C93.9731 16.8389 98.0231 15.8 103.464 15.8V5.8C96.8089 5.8 90.8749 7.06514 85.9621 9.94093L91.0139 18.5711ZM103.464 15.8C108.953 15.8 113.628 17.4765 117.702 20.8452L124.074 13.1388C118.164 8.25148 111.223 5.8 103.464 5.8V15.8ZM117.709 20.8516C121.826 24.2421 125.217 29.049 127.753 35.5204L137.063 31.8716C134.031 24.135 129.742 17.8059 124.067 13.1323L117.709 20.8516ZM127.74 35.4866C130.167 41.8148 131.44 49.2523 131.44 57.888H141.44C141.44 48.2837 140.025 39.5932 137.076 31.9054L127.74 35.4866Z" fill="#296FF9"/>
<g filter="url(#filter1_f_56_2)">
<path d="M135 399.192C135 400.248 134.616 401.16 133.848 401.928C133.08 402.696 132.168 403.08 131.112 403.08H38.088C37.032 403.08 36.12 402.696 35.352 401.928C34.584 401.16 34.2 400.248 34.2 399.192V357.72C34.2 348.696 35.736 340.632 38.808 333.528C41.784 326.424 46.2 320.76 52.056 316.536C57.912 312.216 65.16 309.912 73.8 309.624C77.928 309.432 81.576 309.336 84.744 309.336C87.816 309.336 91.32 309.432 95.256 309.624C104.28 310.008 111.768 312.216 117.72 316.248C123.576 320.28 127.944 325.8 130.824 332.808C133.608 339.72 135 347.784 135 357V399.192ZM106.92 367.08V357.72C106.92 355.608 106.536 353.736 105.768 352.104C104.904 350.376 103.608 348.984 101.88 347.928C100.152 346.872 97.944 346.296 95.256 346.2C92.472 346.008 89.976 345.912 87.768 345.912C85.56 345.816 83.352 345.816 81.144 345.912C78.84 345.912 76.392 346.008 73.8 346.2C69.768 346.392 66.84 347.688 65.016 350.088C63.192 352.392 62.28 355.176 62.28 358.44V367.08H106.92ZM135 303.769C135 304.633 134.712 305.401 134.136 306.073C133.464 306.649 132.696 306.938 131.832 306.938C131.448 306.938 131.112 306.889 130.824 306.793L38.952 274.681C37.896 274.393 36.84 273.721 35.784 272.665C34.728 271.609 34.2 270.121 34.2 268.201V236.953C34.2 235.033 34.728 233.545 35.784 232.489C36.84 231.433 37.896 230.761 38.952 230.473L130.824 198.361C131.112 198.265 131.448 198.217 131.832 198.217C132.696 198.217 133.464 198.553 134.136 199.225C134.712 199.801 135 200.521 135 201.385V228.025C135 229.849 134.616 231.193 133.848 232.057C132.984 232.825 132.168 233.353 131.4 233.641L121.896 237.097V268.057L131.4 271.513C132.168 271.801 132.984 272.329 133.848 273.097C134.616 273.865 135 275.209 135 277.129V303.769ZM93.816 260.713V244.441L67.032 252.649L93.816 260.713ZM135 173.883C135 174.939 134.616 175.851 133.848 176.619C133.08 177.387 132.168 177.771 131.112 177.771H102.744L38.664 210.171C38.472 210.267 38.28 210.363 38.088 210.459C37.8 210.459 37.56 210.459 37.368 210.459C36.504 210.459 35.784 210.171 35.208 209.595C34.536 208.923 34.2 208.155 34.2 207.291V180.219C34.2 178.299 34.68 176.859 35.64 175.899C36.6 174.939 37.32 174.363 37.8 174.171L66.744 159.771L37.8 145.371C37.32 145.179 36.6 144.603 35.64 143.643C34.68 142.683 34.2 141.243 34.2 139.323L34.2 112.251C34.2 111.387 34.536 110.667 35.208 110.091C35.784 109.419 36.504 109.083 37.368 109.083C37.56 109.083 37.8 109.131 38.088 109.227C38.28 109.227 38.472 109.275 38.664 109.371L102.744 141.771H131.112C132.168 141.771 133.08 142.155 133.848 142.923C134.616 143.691 135 144.603 135 145.659V173.883Z" fill="#33FFC0"/>
</g>
<path d="M135 399.192C135 400.248 134.616 401.16 133.848 401.928C133.08 402.696 132.168 403.08 131.112 403.08H38.088C37.032 403.08 36.12 402.696 35.352 401.928C34.584 401.16 34.2 400.248 34.2 399.192V357.72C34.2 348.696 35.736 340.632 38.808 333.528C41.784 326.424 46.2 320.76 52.056 316.536C57.912 312.216 65.16 309.912 73.8 309.624C77.928 309.432 81.576 309.336 84.744 309.336C87.816 309.336 91.32 309.432 95.256 309.624C104.28 310.008 111.768 312.216 117.72 316.248C123.576 320.28 127.944 325.8 130.824 332.808C133.608 339.72 135 347.784 135 357V399.192ZM106.92 367.08V357.72C106.92 355.608 106.536 353.736 105.768 352.104C104.904 350.376 103.608 348.984 101.88 347.928C100.152 346.872 97.944 346.296 95.256 346.2C92.472 346.008 89.976 345.912 87.768 345.912C85.56 345.816 83.352 345.816 81.144 345.912C78.84 345.912 76.392 346.008 73.8 346.2C69.768 346.392 66.84 347.688 65.016 350.088C63.192 352.392 62.28 355.176 62.28 358.44V367.08H106.92ZM135 303.769C135 304.633 134.712 305.401 134.136 306.073C133.464 306.649 132.696 306.938 131.832 306.938C131.448 306.938 131.112 306.889 130.824 306.793L38.952 274.681C37.896 274.393 36.84 273.721 35.784 272.665C34.728 271.609 34.2 270.121 34.2 268.201V236.953C34.2 235.033 34.728 233.545 35.784 232.489C36.84 231.433 37.896 230.761 38.952 230.473L130.824 198.361C131.112 198.265 131.448 198.217 131.832 198.217C132.696 198.217 133.464 198.553 134.136 199.225C134.712 199.801 135 200.521 135 201.385V228.025C135 229.849 134.616 231.193 133.848 232.057C132.984 232.825 132.168 233.353 131.4 233.641L121.896 237.097V268.057L131.4 271.513C132.168 271.801 132.984 272.329 133.848 273.097C134.616 273.865 135 275.209 135 277.129V303.769ZM93.816 260.713V244.441L67.032 252.649L93.816 260.713ZM135 173.883C135 174.939 134.616 175.851 133.848 176.619C133.08 177.387 132.168 177.771 131.112 177.771H102.744L38.664 210.171C38.472 210.267 38.28 210.363 38.088 210.459C37.8 210.459 37.56 210.459 37.368 210.459C36.504 210.459 35.784 210.171 35.208 209.595C34.536 208.923 34.2 208.155 34.2 207.291V180.219C34.2 178.299 34.68 176.859 35.64 175.899C36.6 174.939 37.32 174.363 37.8 174.171L66.744 159.771L37.8 145.371C37.32 145.179 36.6 144.603 35.64 143.643C34.68 142.683 34.2 141.243 34.2 139.323L34.2 112.251C34.2 111.387 34.536 110.667 35.208 110.091C35.784 109.419 36.504 109.083 37.368 109.083C37.56 109.083 37.8 109.131 38.088 109.227C38.28 109.227 38.472 109.275 38.664 109.371L102.744 141.771H131.112C132.168 141.771 133.08 142.155 133.848 142.923C134.616 143.691 135 144.603 135 145.659V173.883Z" fill="#296FF9"/>
<defs>
<filter id="filter0_f_56_2" x="24.2" y="0.800003" width="122.24" height="113.888" filterUnits="userSpaceOnUse" color-interpolation-filters="sRGB">
<feFlood flood-opacity="0" result="BackgroundImageFix"/>
<feBlend mode="normal" in="SourceGraphic" in2="BackgroundImageFix" result="shape"/>
<feGaussianBlur stdDeviation="5" result="effect1_foregroundBlur_56_2"/>
</filter>
<filter id="filter1_f_56_2" x="24.2" y="99.0826" width="120.8" height="313.997" filterUnits="userSpaceOnUse" color-interpolation-filters="sRGB">
<feFlood flood-opacity="0" result="BackgroundImageFix"/>
<feBlend mode="normal" in="SourceGraphic" in2="BackgroundImageFix" result="shape"/>
<feGaussianBlur stdDeviation="5" result="effect1_foregroundBlur_56_2"/>
</filter>
</defs>
</svg>
