<svg width="34" height="34" viewBox="0 0 34 34" fill="none" xmlns="http://www.w3.org/2000/svg">
<path d="M17 31.875C13.0549 31.875 9.27139 30.3078 6.48179 27.5182C3.69218 24.7286 2.125 20.9451 2.125 17C2.125 13.0549 3.69218 9.27139 6.48179 6.48179C9.27139 3.69218 13.0549 2.125 17 2.125C20.9451 2.125 24.7286 3.69218 27.5182 6.48179C30.3078 9.27139 31.875 13.0549 31.875 17C31.875 20.9451 30.3078 24.7286 27.5182 27.5182C24.7286 30.3078 20.9451 31.875 17 31.875ZM17 34C21.5087 34 25.8327 32.2089 29.0208 29.0208C32.2089 25.8327 34 21.5087 34 17C34 12.4913 32.2089 8.1673 29.0208 4.97919C25.8327 1.79107 21.5087 0 17 0C12.4913 0 8.1673 1.79107 4.97919 4.97919C1.79107 8.1673 0 12.4913 0 17C0 21.5087 1.79107 25.8327 4.97919 29.0208C8.1673 32.2089 12.4913 34 17 34Z" fill="#33FFC0"/>
<path d="M17 8.5C17.2818 8.5 17.552 8.61194 17.7513 8.8112C17.9506 9.01046 18.0625 9.28071 18.0625 9.5625V15.9375H24.4375C24.7193 15.9375 24.9895 16.0494 25.1888 16.2487C25.3881 16.448 25.5 16.7182 25.5 17C25.5 17.2818 25.3881 17.552 25.1888 17.7513C24.9895 17.9506 24.7193 18.0625 24.4375 18.0625H18.0625V24.4375C18.0625 24.7193 17.9506 24.9895 17.7513 25.1888C17.552 25.3881 17.2818 25.5 17 25.5C16.7182 25.5 16.448 25.3881 16.2487 25.1888C16.0494 24.9895 15.9375 24.7193 15.9375 24.4375V18.0625H9.5625C9.28071 18.0625 9.01046 17.9506 8.8112 17.7513C8.61194 17.552 8.5 17.2818 8.5 17C8.5 16.7182 8.61194 16.448 8.8112 16.2487C9.01046 16.0494 9.28071 15.9375 9.5625 15.9375H15.9375V9.5625C15.9375 9.28071 16.0494 9.01046 16.2487 8.8112C16.448 8.61194 16.7182 8.5 17 8.5Z" fill="#33FFC0"/>
</svg>
