<svg width="1920" height="1024" viewBox="0 0 1920 1024" fill="none" xmlns="http://www.w3.org/2000/svg">
<rect y="512" width="1920" height="1024" fill="white"/>
<g opacity="0.4">
<path d="M1009 559.5C1009 560.881 1010.12 562 1011.5 562C1012.88 562 1014 560.881 1014 559.5H1009ZM1014 514.5V512H1009V514.5H1014ZM1014 559.5V514.5H1009V559.5H1014Z" fill="#CCCCCC"/>
<circle cx="1011.6" cy="565.595" r="10" transform="rotate(100.652 1011.6 565.595)" stroke="#CCCCCC" stroke-width="5"/>
<line x1="1528.5" y1="1089.5" x2="1528.5" y2="912.5" stroke="#CCCCCC" stroke-width="5" stroke-linecap="round"/>
<circle cx="1528.5" cy="907.5" r="10" stroke="#CCCCCC" stroke-width="5"/>
<line x1="1239.5" y1="970.5" x2="1526.5" y2="970.5" stroke="#CCCCCC" stroke-width="5" stroke-linecap="round"/>
<line x1="1239.16" y1="969.693" x2="1114" y2="844.535" stroke="#CCCCCC" stroke-width="5" stroke-linecap="round"/>
<line x1="1799.5" y1="602.502" x2="1607.5" y2="602.502" stroke="#CCCCCC" stroke-width="5" stroke-linecap="round"/>
<line x1="1857.5" y1="571.5" x2="1804.5" y2="571.5" stroke="#CCCCCC" stroke-width="5" stroke-linecap="round"/>
<circle cx="1602.5" cy="602.502" r="10" transform="rotate(-90 1602.5 602.502)" stroke="#CCCCCC" stroke-width="5"/>
<circle cx="1735.5" cy="964.5" r="10" transform="rotate(-90 1735.5 964.5)" stroke="#CCCCCC" stroke-width="5"/>
<circle cx="1801.5" cy="757.5" r="10" transform="rotate(-90 1801.5 757.5)" stroke="#CCCCCC" stroke-width="5"/>
<path d="M1799.5 754C1799.5 755.381 1800.62 756.5 1802 756.5C1803.38 756.5 1804.5 755.381 1804.5 754H1799.5ZM1804.5 754V512H1799.5V754H1804.5Z" fill="#CCCCCC"/>
<line x1="1661.5" y1="891.502" x2="1661.5" y2="604.5" stroke="#CCCCCC" stroke-width="5" stroke-linecap="round"/>
<line x1="1354.5" y1="970.502" x2="1354.5" y2="563.502" stroke="#CCCCCC" stroke-width="5" stroke-linecap="round"/>
<line x1="1799.53" y1="676.515" x2="1920.75" y2="720.635" stroke="#CCCCCC" stroke-width="5"/>
<line x1="1660.69" y1="892.536" x2="1529.17" y2="1024.06" stroke="#CCCCCC" stroke-width="5" stroke-linecap="round"/>
<line x1="1664.5" y1="861.826" x2="1778.16" y2="861.826" stroke="#CCCCCC" stroke-width="5" stroke-linecap="round"/>
<line x1="1735.5" y1="1083.16" x2="1735.5" y2="969.5" stroke="#CCCCCC" stroke-width="5" stroke-linecap="round"/>
<g filter="url(#filter0_f_1_806)">
<circle cx="1780.5" cy="861.5" r="12.5" fill="#33FFC0"/>
<circle cx="1780.5" cy="861.5" r="10" stroke="#33FFC0" stroke-width="5"/>
</g>
<g filter="url(#filter1_f_1_806)">
<circle cx="1864.5" cy="571.5" r="12.5" fill="#33FFC0"/>
<circle cx="1864.5" cy="571.5" r="10" stroke="#33FFC0" stroke-width="5"/>
</g>
<circle cx="1780.5" cy="861.5" r="10" fill="#33FFC0" stroke="#CCCCCC" stroke-width="5"/>
<circle cx="1864.5" cy="571.5" r="10" fill="#33FFC0" stroke="#CCCCCC" stroke-width="5"/>
<line x1="290.5" y1="931.502" x2="113.5" y2="931.502" stroke="#CCCCCC" stroke-width="5" stroke-linecap="round"/>
<line x1="290.5" y1="697.5" x2="173.5" y2="697.5" stroke="#CCCCCC" stroke-width="5" stroke-linecap="round"/>
<line x1="377.5" y1="751.5" x2="290.5" y2="751.5" stroke="#CCCCCC" stroke-width="5" stroke-linecap="round"/>
<line x1="213.5" y1="824.5" x2="51.5" y2="824.5" stroke="#CCCCCC" stroke-width="5" stroke-linecap="round"/>
<line x1="553.5" y1="811.502" x2="290.5" y2="811.502" stroke="#CCCCCC" stroke-width="5" stroke-linecap="round"/>
<circle cx="108.5" cy="931.502" r="10" transform="rotate(-90 108.5 931.502)" stroke="#CCCCCC" stroke-width="5"/>
<circle cx="169.5" cy="697.5" r="10" transform="rotate(-90 169.5 697.5)" stroke="#CCCCCC" stroke-width="5"/>
<line x1="290.5" y1="984.502" x2="290.5" y2="697.5" stroke="#CCCCCC" stroke-width="5" stroke-linecap="round"/>
<line x1="479.5" y1="1130.5" x2="479.5" y2="933.5" stroke="#CCCCCC" stroke-width="5" stroke-linecap="round"/>
<line x1="553.5" y1="811.5" x2="553.5" y2="614.5" stroke="#CCCCCC" stroke-width="5" stroke-linecap="round"/>
<path d="M677.5 858C677.5 859.381 678.619 860.5 680 860.5C681.381 860.5 682.5 859.381 682.5 858H677.5ZM682.5 858V512H677.5V858H682.5Z" fill="#CCCCCC"/>
<line x1="680.5" y1="712.5" x2="787.5" y2="712.5" stroke="#CCCCCC" stroke-width="5" stroke-linecap="round"/>
<line x1="400.5" y1="918.5" x2="400.5" y2="811.5" stroke="#CCCCCC" stroke-width="5" stroke-linecap="round"/>
<line x1="213.5" y1="931.5" x2="213.5" y2="824.5" stroke="#CCCCCC" stroke-width="5" stroke-linecap="round"/>
<line x1="170.5" y1="1220.5" x2="170.5" y2="933.5" stroke="#CCCCCC" stroke-width="5" stroke-linecap="round"/>
<line x1="290.49" y1="984.564" x2="373.562" y2="1099.51" stroke="#CCCCCC" stroke-width="5" stroke-linecap="round"/>
<line x1="1024.52" y1="1087.65" x2="899.361" y2="962.497" stroke="#CCCCCC" stroke-width="5" stroke-linecap="round"/>
<line x1="1263.52" y1="1156.95" x2="1109.37" y2="1002.8" stroke="#CCCCCC" stroke-width="5" stroke-linecap="round"/>
<circle cx="749.678" cy="962.678" r="10" transform="rotate(-45 749.678 962.678)" stroke="#CCCCCC" stroke-width="5"/>
<circle cx="791.678" cy="712.678" r="10" transform="rotate(-45 791.678 712.678)" stroke="#CCCCCC" stroke-width="5"/>
<circle cx="641.678" cy="933.678" r="10" transform="rotate(-45 641.678 933.678)" stroke="#CCCCCC" stroke-width="5"/>
<circle cx="553.678" cy="609.678" r="10" transform="rotate(-45 553.678 609.678)" stroke="#CCCCCC" stroke-width="5"/>
<circle cx="382.678" cy="751.678" r="10" transform="rotate(-45 382.678 751.678)" stroke="#CCCCCC" stroke-width="5"/>
<line x1="987.042" y1="1125.13" x2="1189.98" y2="922.191" stroke="#CCCCCC" stroke-width="5" stroke-linecap="round"/>
<line x1="735.312" y1="1207.16" x2="938.253" y2="1004.21" stroke="#CCCCCC" stroke-width="5" stroke-linecap="round"/>
<line x1="939.693" y1="768.5" x2="1116.69" y2="768.5" stroke="#CCCCCC" stroke-width="5" stroke-linecap="round"/>
<line x1="680.5" y1="858.5" x2="939.5" y2="858.5" stroke="#CCCCCC" stroke-width="5" stroke-linecap="round"/>
<circle cx="1121.69" cy="768.5" r="10" transform="rotate(90 1121.69 768.5)" stroke="#CCCCCC" stroke-width="5"/>
<circle cx="1192.5" cy="685.5" r="10" stroke="#CCCCCC" stroke-width="5"/>
<circle cx="1486.5" cy="563.5" r="10" stroke="#CCCCCC" stroke-width="5"/>
<line x1="939.693" y1="715.5" x2="939.693" y2="1002.5" stroke="#CCCCCC" stroke-width="5" stroke-linecap="round"/>
<path d="M1060 608.999V768.002" stroke="#CCCCCC" stroke-width="5" stroke-linecap="round"/>
<line x1="939.702" y1="715.439" x2="856.631" y2="600.491" stroke="#CCCCCC" stroke-width="5" stroke-linecap="round"/>
<line x1="396.5" y1="668.5" x2="553.5" y2="668.5" stroke="#CCCCCC" stroke-width="5" stroke-linecap="round"/>
<line x1="127.5" y1="556.5" x2="284.5" y2="556.5" stroke="#CCCCCC" stroke-width="5" stroke-linecap="round"/>
<line x1="284.536" y1="557" x2="395.551" y2="668.016" stroke="#CCCCCC" stroke-width="5" stroke-linecap="round"/>
<line x1="479.5" y1="933.5" x2="636.5" y2="933.5" stroke="#CCCCCC" stroke-width="5" stroke-linecap="round"/>
<line x1="1060.5" y1="608.5" x2="1217.5" y2="608.5" stroke="#CCCCCC" stroke-width="5" stroke-linecap="round"/>
<line x1="1197.5" y1="685.5" x2="1354.5" y2="685.5" stroke="#CCCCCC" stroke-width="5" stroke-linecap="round"/>
<line x1="1354.5" y1="563.5" x2="1481.5" y2="563.5" stroke="#CCCCCC" stroke-width="5" stroke-linecap="round"/>
<line x1="1056" y1="902.464" x2="1114.05" y2="844.416" stroke="#CCCCCC" stroke-width="5" stroke-linecap="round"/>
<line x1="754.5" y1="962.5" x2="899.5" y2="962.5" stroke="#CCCCCC" stroke-width="5" stroke-linecap="round"/>
<line x1="1480.61" y1="710.503" x2="1355.5" y2="805.36" stroke="#CCCCCC" stroke-width="5" stroke-linecap="round"/>
<g filter="url(#filter2_f_1_806)">
<circle cx="853.693" cy="596.5" r="12.5" transform="rotate(90 853.693 596.5)" fill="#33FFC0"/>
<circle cx="853.693" cy="596.5" r="10" transform="rotate(90 853.693 596.5)" stroke="#33FFC0" stroke-width="5"/>
</g>
<circle cx="853.693" cy="596.5" r="10" transform="rotate(90 853.693 596.5)" fill="#33FFC0" stroke="#CCCCCC" stroke-width="5"/>
<g filter="url(#filter3_f_1_806)">
<circle cx="1054.5" cy="903.5" r="12.5" transform="rotate(90 1054.5 903.5)" fill="#33FFC0"/>
<circle cx="1054.5" cy="903.5" r="10" transform="rotate(90 1054.5 903.5)" stroke="#33FFC0" stroke-width="5"/>
</g>
<g filter="url(#filter4_f_1_806)">
<circle cx="1481.5" cy="709.5" r="12.5" transform="rotate(90 1481.5 709.5)" fill="#33FFC0"/>
<circle cx="1481.5" cy="709.5" r="10" transform="rotate(90 1481.5 709.5)" stroke="#33FFC0" stroke-width="5"/>
</g>
<g filter="url(#filter5_f_1_806)">
<circle cx="1223.5" cy="608.5" r="12.5" transform="rotate(90 1223.5 608.5)" fill="#33FFC0"/>
<circle cx="1223.5" cy="608.5" r="10" transform="rotate(90 1223.5 608.5)" stroke="#33FFC0" stroke-width="5"/>
</g>
<circle cx="1054.5" cy="903.5" r="10" transform="rotate(90 1054.5 903.5)" fill="#33FFC0" stroke="#CCCCCC" stroke-width="5"/>
<circle cx="1481.5" cy="709.5" r="10" transform="rotate(90 1481.5 709.5)" fill="#33FFC0" stroke="#CCCCCC" stroke-width="5"/>
<circle cx="1223.5" cy="608.5" r="10" transform="rotate(90 1223.5 608.5)" fill="#33FFC0" stroke="#CCCCCC" stroke-width="5"/>
<g filter="url(#filter6_f_1_806)">
<circle cx="400.678" cy="924.678" r="12.5" transform="rotate(-45 400.678 924.678)" fill="#33FFC0"/>
<circle cx="400.678" cy="924.678" r="10" transform="rotate(-45 400.678 924.678)" stroke="#33FFC0" stroke-width="5"/>
</g>
<g filter="url(#filter7_f_1_806)">
<circle cx="44.6777" cy="823.678" r="12.5" transform="rotate(-45 44.6777 823.678)" fill="#33FFC0"/>
<circle cx="44.6777" cy="823.678" r="10" transform="rotate(-45 44.6777 823.678)" stroke="#33FFC0" stroke-width="5"/>
</g>
<g filter="url(#filter8_f_1_806)">
<circle cx="119.678" cy="556.678" r="12.5" transform="rotate(-45 119.678 556.678)" fill="#33FFC0"/>
<circle cx="119.678" cy="556.678" r="10" transform="rotate(-45 119.678 556.678)" stroke="#33FFC0" stroke-width="5"/>
</g>
<circle cx="400.678" cy="924.678" r="10" transform="rotate(-45 400.678 924.678)" fill="#33FFC0" stroke="#CCCCCC" stroke-width="5"/>
<circle cx="44.6777" cy="823.678" r="10" transform="rotate(-45 44.6777 823.678)" fill="#33FFC0" stroke="#CCCCCC" stroke-width="5"/>
<circle cx="119.678" cy="556.678" r="10" transform="rotate(-45 119.678 556.678)" fill="#33FFC0" stroke="#CCCCCC" stroke-width="5"/>
</g>
<rect y="-512" width="1920" height="1024" fill="white"/>
<g opacity="0.4">
<path d="M1009 509.5V512H1014V509.5H1009ZM1014 352.5C1014 351.119 1012.88 350 1011.5 350C1010.12 350 1009 351.119 1009 352.5H1014ZM1014 509.5V352.5H1009V509.5H1014Z" fill="#CCCCCC"/>
<line x1="1528.5" y1="65.5" x2="1528.5" y2="-111.5" stroke="#CCCCCC" stroke-width="5" stroke-linecap="round"/>
<line x1="642.5" y1="180.5" x2="642.5" y2="60.5" stroke="#CCCCCC" stroke-width="5" stroke-linecap="round"/>
<circle cx="1266.5" cy="40.5" r="10" stroke="#CCCCCC" stroke-width="5"/>
<path d="M1476 63.5C1474.62 63.5 1473.5 64.6193 1473.5 66C1473.5 67.3807 1474.62 68.5 1476 68.5V63.5ZM1476 68.5H1920V63.5H1476V68.5Z" fill="#CCCCCC"/>
<line x1="1475.44" y1="66.4906" x2="1360.49" y2="149.562" stroke="#CCCCCC" stroke-width="5" stroke-linecap="round"/>
<line x1="1187.81" y1="470.272" x2="1107.36" y2="353.477" stroke="#CCCCCC" stroke-width="5" stroke-linecap="round"/>
<line x1="1257.04" y1="312.403" x2="1186.4" y2="351.997" stroke="#CCCCCC" stroke-width="5" stroke-linecap="round"/>
<g filter="url(#filter9_f_1_806)">
<circle cx="1356.5" cy="152.5" r="12.5" fill="#33FFC0"/>
<circle cx="1356.5" cy="152.5" r="10" stroke="#33FFC0" stroke-width="5"/>
</g>
<circle cx="1356.5" cy="152.5" r="10" fill="#33FFC0" stroke="#CCCCCC" stroke-width="5"/>
<g filter="url(#filter10_f_1_806)">
<circle cx="1190.5" cy="473.5" r="12.5" fill="#33FFC0"/>
<circle cx="1190.5" cy="473.5" r="10" stroke="#33FFC0" stroke-width="5"/>
</g>
<circle cx="1190.5" cy="473.5" r="10" fill="#33FFC0" stroke="#CCCCCC" stroke-width="5"/>
<line x1="1386.5" y1="263.5" x2="1386.5" y2="440.5" stroke="#CCCCCC" stroke-width="5" stroke-linecap="round"/>
<line x1="1266.5" y1="45.5001" x2="1266.5" y2="263.5" stroke="#CCCCCC" stroke-width="5" stroke-linecap="round"/>
<circle cx="1386.5" cy="445.5" r="10" transform="rotate(-180 1386.5 445.5)" stroke="#CCCCCC" stroke-width="5"/>
<circle cx="1653.5" cy="314.5" r="10" transform="rotate(-180 1653.5 314.5)" stroke="#CCCCCC" stroke-width="5"/>
<circle cx="1261.5" cy="309.5" r="10" transform="rotate(-180 1261.5 309.5)" stroke="#CCCCCC" stroke-width="5"/>
<line x1="1439.5" y1="263.5" x2="1152.5" y2="263.5" stroke="#CCCCCC" stroke-width="5" stroke-linecap="round"/>
<line x1="1675.5" y1="383.5" x2="1388.5" y2="383.5" stroke="#CCCCCC" stroke-width="5" stroke-linecap="round"/>
<line x1="1442.56" y1="263.509" x2="1557.51" y2="180.438" stroke="#CCCCCC" stroke-width="5" stroke-linecap="round"/>
<path d="M1779 239.5C1777.62 239.5 1776.5 240.619 1776.5 242C1776.5 243.381 1777.62 244.5 1779 244.5V239.5ZM1779 244.5H1920V239.5H1779V244.5Z" fill="#CCCCCC"/>
<path d="M1558 180H1698" stroke="#CCCCCC" stroke-width="5" stroke-linecap="round"/>
<path d="M1658 312L1779.24 242" stroke="#CCCCCC" stroke-width="5" stroke-linecap="round"/>
<path d="M1676 384L1801.94 509.936" stroke="#CCCCCC" stroke-width="5" stroke-linecap="round"/>
<line x1="1660.69" y1="-131.464" x2="1529.17" y2="0.0573935" stroke="#CCCCCC" stroke-width="5" stroke-linecap="round"/>
<line x1="1735.5" y1="59.1553" x2="1735.5" y2="-54.4998" stroke="#CCCCCC" stroke-width="5" stroke-linecap="round"/>
<line x1="1718.5" y1="426.5" x2="1832.16" y2="426.5" stroke="#CCCCCC" stroke-width="5" stroke-linecap="round"/>
<g filter="url(#filter11_f_1_806)">
<circle cx="1840.5" cy="426.5" r="12.5" fill="#33FFC0"/>
<circle cx="1840.5" cy="426.5" r="10" stroke="#33FFC0" stroke-width="5"/>
</g>
<circle cx="1840.5" cy="426.5" r="10" fill="#33FFC0" stroke="#CCCCCC" stroke-width="5"/>
<g filter="url(#filter12_f_1_806)">
<circle cx="1703.5" cy="180.5" r="12.5" fill="#33FFC0"/>
<circle cx="1703.5" cy="180.5" r="10" stroke="#33FFC0" stroke-width="5"/>
</g>
<circle cx="1703.5" cy="180.5" r="10" fill="#33FFC0" stroke="#CCCCCC" stroke-width="5"/>
<line x1="479.5" y1="106.5" x2="479.5" y2="-90.5" stroke="#CCCCCC" stroke-width="5" stroke-linecap="round"/>
<path d="M682.5 345C682.5 343.619 681.381 342.5 680 342.5C678.619 342.5 677.5 343.619 677.5 345H682.5ZM682.5 512V345H677.5V512H682.5Z" fill="#CCCCCC"/>
<line x1="170.5" y1="196.502" x2="170.5" y2="-90.4999" stroke="#CCCCCC" stroke-width="5" stroke-linecap="round"/>
<line x1="290.49" y1="-39.4361" x2="373.562" y2="75.5114" stroke="#CCCCCC" stroke-width="5" stroke-linecap="round"/>
<line x1="169.693" y1="196.844" x2="44.5354" y2="322.002" stroke="#CCCCCC" stroke-width="5" stroke-linecap="round"/>
<line x1="1024.52" y1="63.6548" x2="899.361" y2="-61.5031" stroke="#CCCCCC" stroke-width="5" stroke-linecap="round"/>
<line x1="1263.52" y1="132.952" x2="1109.37" y2="-21.1975" stroke="#CCCCCC" stroke-width="5" stroke-linecap="round"/>
<line x1="987.042" y1="101.131" x2="1189.98" y2="-101.809" stroke="#CCCCCC" stroke-width="5" stroke-linecap="round"/>
<line x1="735.312" y1="183.156" x2="938.253" y2="-19.7851" stroke="#CCCCCC" stroke-width="5" stroke-linecap="round"/>
<line x1="986.754" y1="101.87" x2="986.754" y2="243.693" stroke="#CCCCCC" stroke-width="5" stroke-linecap="round"/>
<line x1="1073.42" y1="127.9" x2="1152.57" y2="263.581" stroke="#CCCCCC" stroke-width="5" stroke-linecap="round"/>
<line x1="734.5" y1="182.828" x2="557.5" y2="182.828" stroke="#CCCCCC" stroke-width="5" stroke-linecap="round"/>
<g filter="url(#filter13_f_1_806)">
<circle cx="986.678" cy="247.678" r="12.5" transform="rotate(-45 986.678 247.678)" fill="#33FFC0"/>
<circle cx="986.678" cy="247.678" r="10" transform="rotate(-45 986.678 247.678)" stroke="#33FFC0" stroke-width="5"/>
</g>
<circle cx="986.678" cy="247.678" r="10" transform="rotate(-45 986.678 247.678)" fill="#33FFC0" stroke="#CCCCCC" stroke-width="5"/>
<line x1="373.5" y1="200.5" x2="373.5" y2="75.4996" stroke="#CCCCCC" stroke-width="5" stroke-linecap="round"/>
<line x1="240.5" y1="199.5" x2="240.5" y2="74.4996" stroke="#CCCCCC" stroke-width="5" stroke-linecap="round"/>
<line y1="18.5" x2="168" y2="18.5" stroke="#CCCCCC" stroke-width="5"/>
<line x1="44.5" y1="397.5" x2="44.5" y2="322.5" stroke="#CCCCCC" stroke-width="5" stroke-linecap="round"/>
<line x1="894.5" y1="352.5" x2="894.5" y2="175.5" stroke="#CCCCCC" stroke-width="5" stroke-linecap="round"/>
<circle cx="894.5" cy="170.5" r="10" stroke="#CCCCCC" stroke-width="5"/>
<circle cx="1070.1" cy="123.096" r="10" transform="rotate(59.74 1070.1 123.096)" stroke="#CCCCCC" stroke-width="5"/>
<circle cx="631.5" cy="421.5" r="10" stroke="#CCCCCC" stroke-width="5"/>
<line x1="841.5" y1="352.5" x2="1185.5" y2="352.5" stroke="#CCCCCC" stroke-width="5" stroke-linecap="round"/>
<line x1="605.501" y1="232.5" x2="892.503" y2="232.5" stroke="#CCCCCC" stroke-width="5" stroke-linecap="round"/>
<line x1="841.439" y1="352.491" x2="726.491" y2="435.562" stroke="#CCCCCC" stroke-width="5" stroke-linecap="round"/>
<line x1="605.158" y1="231.693" x2="480" y2="106.536" stroke="#CCCCCC" stroke-width="5" stroke-linecap="round"/>
<g filter="url(#filter14_f_1_806)">
<circle cx="722.5" cy="438.5" r="12.5" fill="#33FFC0"/>
<circle cx="722.5" cy="438.5" r="10" stroke="#33FFC0" stroke-width="5"/>
</g>
<g filter="url(#filter15_f_1_806)">
<circle cx="679.5" cy="339.5" r="12.5" fill="#33FFC0"/>
<circle cx="679.5" cy="339.5" r="10" stroke="#33FFC0" stroke-width="5"/>
</g>
<circle cx="722.5" cy="438.5" r="10" fill="#33FFC0" stroke="#CCCCCC" stroke-width="5"/>
<circle cx="679.5" cy="339.5" r="10" fill="#33FFC0" stroke="#CCCCCC" stroke-width="5"/>
<line x1="389.464" y1="349" x2="240.972" y2="200.508" stroke="#CCCCCC" stroke-width="5" stroke-linecap="round"/>
<line x1="628.521" y1="417.952" x2="474.371" y2="263.803" stroke="#CCCCCC" stroke-width="5" stroke-linecap="round"/>
<circle r="10" transform="matrix(0.707106 -0.707108 0.707106 0.707108 240.678 69.6777)" stroke="#CCCCCC" stroke-width="5"/>
<line x1="352.042" y1="386.132" x2="554.983" y2="183.191" stroke="#CCCCCC" stroke-width="5" stroke-linecap="round"/>
<line x1="100.312" y1="468.156" x2="303.253" y2="265.215" stroke="#CCCCCC" stroke-width="5" stroke-linecap="round"/>
<line x1="351.992" y1="386.169" x2="336.893" y2="479.961" stroke="#CCCCCC" stroke-width="5" stroke-linecap="round"/>
<path d="M100 471.328C101.381 471.328 102.5 470.209 102.5 468.828C102.5 467.447 101.381 466.328 100 466.328V471.328ZM100 466.328H5.96046e-06V471.328H100V466.328Z" fill="#CCCCCC"/>
<g filter="url(#filter16_f_1_806)">
<circle r="12.5" transform="matrix(0.707106 -0.707108 0.707106 0.707108 334.678 488.678)" fill="#33FFC0"/>
<circle r="10" transform="matrix(0.707106 -0.707108 0.707106 0.707108 334.678 488.678)" stroke="#33FFC0" stroke-width="5"/>
</g>
<g filter="url(#filter17_f_1_806)">
<circle r="12.5" transform="matrix(0.707106 -0.707108 0.707106 0.707108 373.678 204.678)" fill="#33FFC0"/>
<circle r="10" transform="matrix(0.707106 -0.707108 0.707106 0.707108 373.678 204.678)" stroke="#33FFC0" stroke-width="5"/>
</g>
<g filter="url(#filter18_f_1_806)">
<circle cx="642.678" cy="57.6776" r="12.5" transform="rotate(-45 642.678 57.6776)" fill="#33FFC0"/>
<circle cx="642.678" cy="57.6776" r="10" transform="rotate(-45 642.678 57.6776)" stroke="#33FFC0" stroke-width="5"/>
</g>
<g filter="url(#filter19_f_1_806)">
<circle cx="44.6777" cy="402.678" r="12.5" transform="rotate(-45 44.6777 402.678)" fill="#33FFC0"/>
<circle cx="44.6777" cy="402.678" r="10" transform="rotate(-45 44.6777 402.678)" stroke="#33FFC0" stroke-width="5"/>
</g>
<circle r="10" transform="matrix(0.707106 -0.707108 0.707106 0.707108 334.678 488.678)" fill="#33FFC0" stroke="#CCCCCC" stroke-width="5"/>
<circle r="10" transform="matrix(0.707106 -0.707108 0.707106 0.707108 373.678 204.678)" fill="#33FFC0" stroke="#CCCCCC" stroke-width="5"/>
<circle cx="642.678" cy="57.6776" r="10" transform="rotate(-45 642.678 57.6776)" fill="#33FFC0" stroke="#CCCCCC" stroke-width="5"/>
<circle cx="44.6777" cy="402.678" r="10" transform="rotate(-45 44.6777 402.678)" fill="#33FFC0" stroke="#CCCCCC" stroke-width="5"/>
<path d="M1799.5 509H1803.4C1804.01 509 1804.5 509.492 1804.5 510.1V512H1799.5V509Z" fill="#CCCCCC"/>
</g>
<defs>
<filter id="filter0_f_1_806" x="1753" y="834" width="55" height="55" filterUnits="userSpaceOnUse" color-interpolation-filters="sRGB">
<feFlood flood-opacity="0" result="BackgroundImageFix"/>
<feBlend mode="normal" in="SourceGraphic" in2="BackgroundImageFix" result="shape"/>
<feGaussianBlur stdDeviation="7.5" result="effect1_foregroundBlur_1_806"/>
</filter>
<filter id="filter1_f_1_806" x="1837" y="544" width="55" height="55" filterUnits="userSpaceOnUse" color-interpolation-filters="sRGB">
<feFlood flood-opacity="0" result="BackgroundImageFix"/>
<feBlend mode="normal" in="SourceGraphic" in2="BackgroundImageFix" result="shape"/>
<feGaussianBlur stdDeviation="7.5" result="effect1_foregroundBlur_1_806"/>
</filter>
<filter id="filter2_f_1_806" x="831.193" y="574" width="45" height="45" filterUnits="userSpaceOnUse" color-interpolation-filters="sRGB">
<feFlood flood-opacity="0" result="BackgroundImageFix"/>
<feBlend mode="normal" in="SourceGraphic" in2="BackgroundImageFix" result="shape"/>
<feGaussianBlur stdDeviation="5" result="effect1_foregroundBlur_1_806"/>
</filter>
<filter id="filter3_f_1_806" x="1032" y="881" width="45" height="45" filterUnits="userSpaceOnUse" color-interpolation-filters="sRGB">
<feFlood flood-opacity="0" result="BackgroundImageFix"/>
<feBlend mode="normal" in="SourceGraphic" in2="BackgroundImageFix" result="shape"/>
<feGaussianBlur stdDeviation="5" result="effect1_foregroundBlur_1_806"/>
</filter>
<filter id="filter4_f_1_806" x="1459" y="687" width="45" height="45" filterUnits="userSpaceOnUse" color-interpolation-filters="sRGB">
<feFlood flood-opacity="0" result="BackgroundImageFix"/>
<feBlend mode="normal" in="SourceGraphic" in2="BackgroundImageFix" result="shape"/>
<feGaussianBlur stdDeviation="5" result="effect1_foregroundBlur_1_806"/>
</filter>
<filter id="filter5_f_1_806" x="1201" y="586" width="45" height="45" filterUnits="userSpaceOnUse" color-interpolation-filters="sRGB">
<feFlood flood-opacity="0" result="BackgroundImageFix"/>
<feBlend mode="normal" in="SourceGraphic" in2="BackgroundImageFix" result="shape"/>
<feGaussianBlur stdDeviation="5" result="effect1_foregroundBlur_1_806"/>
</filter>
<filter id="filter6_f_1_806" x="373.178" y="897.178" width="55" height="55" filterUnits="userSpaceOnUse" color-interpolation-filters="sRGB">
<feFlood flood-opacity="0" result="BackgroundImageFix"/>
<feBlend mode="normal" in="SourceGraphic" in2="BackgroundImageFix" result="shape"/>
<feGaussianBlur stdDeviation="7.5" result="effect1_foregroundBlur_1_806"/>
</filter>
<filter id="filter7_f_1_806" x="17.1777" y="796.178" width="55" height="55" filterUnits="userSpaceOnUse" color-interpolation-filters="sRGB">
<feFlood flood-opacity="0" result="BackgroundImageFix"/>
<feBlend mode="normal" in="SourceGraphic" in2="BackgroundImageFix" result="shape"/>
<feGaussianBlur stdDeviation="7.5" result="effect1_foregroundBlur_1_806"/>
</filter>
<filter id="filter8_f_1_806" x="92.1777" y="529.178" width="55" height="55" filterUnits="userSpaceOnUse" color-interpolation-filters="sRGB">
<feFlood flood-opacity="0" result="BackgroundImageFix"/>
<feBlend mode="normal" in="SourceGraphic" in2="BackgroundImageFix" result="shape"/>
<feGaussianBlur stdDeviation="7.5" result="effect1_foregroundBlur_1_806"/>
</filter>
<filter id="filter9_f_1_806" x="1329" y="125" width="55" height="55" filterUnits="userSpaceOnUse" color-interpolation-filters="sRGB">
<feFlood flood-opacity="0" result="BackgroundImageFix"/>
<feBlend mode="normal" in="SourceGraphic" in2="BackgroundImageFix" result="shape"/>
<feGaussianBlur stdDeviation="7.5" result="effect1_foregroundBlur_1_806"/>
</filter>
<filter id="filter10_f_1_806" x="1163" y="446" width="55" height="55" filterUnits="userSpaceOnUse" color-interpolation-filters="sRGB">
<feFlood flood-opacity="0" result="BackgroundImageFix"/>
<feBlend mode="normal" in="SourceGraphic" in2="BackgroundImageFix" result="shape"/>
<feGaussianBlur stdDeviation="7.5" result="effect1_foregroundBlur_1_806"/>
</filter>
<filter id="filter11_f_1_806" x="1813" y="399" width="55" height="55" filterUnits="userSpaceOnUse" color-interpolation-filters="sRGB">
<feFlood flood-opacity="0" result="BackgroundImageFix"/>
<feBlend mode="normal" in="SourceGraphic" in2="BackgroundImageFix" result="shape"/>
<feGaussianBlur stdDeviation="7.5" result="effect1_foregroundBlur_1_806"/>
</filter>
<filter id="filter12_f_1_806" x="1676" y="153" width="55" height="55" filterUnits="userSpaceOnUse" color-interpolation-filters="sRGB">
<feFlood flood-opacity="0" result="BackgroundImageFix"/>
<feBlend mode="normal" in="SourceGraphic" in2="BackgroundImageFix" result="shape"/>
<feGaussianBlur stdDeviation="7.5" result="effect1_foregroundBlur_1_806"/>
</filter>
<filter id="filter13_f_1_806" x="964.178" y="225.178" width="45" height="45" filterUnits="userSpaceOnUse" color-interpolation-filters="sRGB">
<feFlood flood-opacity="0" result="BackgroundImageFix"/>
<feBlend mode="normal" in="SourceGraphic" in2="BackgroundImageFix" result="shape"/>
<feGaussianBlur stdDeviation="5" result="effect1_foregroundBlur_1_806"/>
</filter>
<filter id="filter14_f_1_806" x="695" y="411" width="55" height="55" filterUnits="userSpaceOnUse" color-interpolation-filters="sRGB">
<feFlood flood-opacity="0" result="BackgroundImageFix"/>
<feBlend mode="normal" in="SourceGraphic" in2="BackgroundImageFix" result="shape"/>
<feGaussianBlur stdDeviation="7.5" result="effect1_foregroundBlur_1_806"/>
</filter>
<filter id="filter15_f_1_806" x="652" y="312" width="55" height="55" filterUnits="userSpaceOnUse" color-interpolation-filters="sRGB">
<feFlood flood-opacity="0" result="BackgroundImageFix"/>
<feBlend mode="normal" in="SourceGraphic" in2="BackgroundImageFix" result="shape"/>
<feGaussianBlur stdDeviation="7.5" result="effect1_foregroundBlur_1_806"/>
</filter>
<filter id="filter16_f_1_806" x="307.178" y="461.178" width="55" height="55" filterUnits="userSpaceOnUse" color-interpolation-filters="sRGB">
<feFlood flood-opacity="0" result="BackgroundImageFix"/>
<feBlend mode="normal" in="SourceGraphic" in2="BackgroundImageFix" result="shape"/>
<feGaussianBlur stdDeviation="7.5" result="effect1_foregroundBlur_1_806"/>
</filter>
<filter id="filter17_f_1_806" x="346.178" y="177.178" width="55" height="55" filterUnits="userSpaceOnUse" color-interpolation-filters="sRGB">
<feFlood flood-opacity="0" result="BackgroundImageFix"/>
<feBlend mode="normal" in="SourceGraphic" in2="BackgroundImageFix" result="shape"/>
<feGaussianBlur stdDeviation="7.5" result="effect1_foregroundBlur_1_806"/>
</filter>
<filter id="filter18_f_1_806" x="615.178" y="30.1776" width="55" height="55" filterUnits="userSpaceOnUse" color-interpolation-filters="sRGB">
<feFlood flood-opacity="0" result="BackgroundImageFix"/>
<feBlend mode="normal" in="SourceGraphic" in2="BackgroundImageFix" result="shape"/>
<feGaussianBlur stdDeviation="7.5" result="effect1_foregroundBlur_1_806"/>
</filter>
<filter id="filter19_f_1_806" x="17.1777" y="375.178" width="55" height="55" filterUnits="userSpaceOnUse" color-interpolation-filters="sRGB">
<feFlood flood-opacity="0" result="BackgroundImageFix"/>
<feBlend mode="normal" in="SourceGraphic" in2="BackgroundImageFix" result="shape"/>
<feGaussianBlur stdDeviation="7.5" result="effect1_foregroundBlur_1_806"/>
</filter>
</defs>
</svg>
